<svg width="100" height="100" viewBox="0 0 100 100" fill="none" xmlns="http://www.w3.org/2000/svg">
<g clip-path="url(#clip0)">
<path d="M80.6468 18.9055V17.9104C80.1493 10.9453 71.194 5.47264 60.2488 1.99005C58.7562 1.49254 57.7612 1.99005 57.2637 3.48259C56.7662 4.97512 57.7612 5.97015 58.7562 6.46766C68.7065 8.95522 76.1692 16.4179 75.6716 17.9104C75.1741 19.403 75.1741 20.8955 75.1741 21.393C75.1741 22.3881 75.1741 22.8856 75.1741 23.8806C75.1741 24.8756 75.6716 25.8706 75.6716 26.3682C76.1692 27.3632 76.6667 30.3483 76.6667 32.8358C76.6667 33.3333 76.6667 33.8308 76.6667 34.3284C76.6667 36.3184 76.1692 37.3134 76.1692 38.3085C76.1692 38.806 76.1692 39.3035 76.1692 39.801C76.1692 41.2935 76.6667 42.2886 77.6617 43.2836C79.6517 46.2687 83.6318 51.7413 84.6269 53.2338C84.1294 53.7313 82.1393 53.7313 80.6468 54.7264C80.1493 55.2239 78.6567 55.2239 78.1592 57.7114C78.1592 59.204 78.6567 59.204 78.6567 59.7015C78.6567 60.199 79.1542 60.6965 79.1542 61.194C78.6567 62.1891 78.6567 63.1841 78.6567 63.6816V64.1791L78.1592 64.6766C77.6617 65.1741 76.6667 66.6667 76.6667 67.6617C76.6667 68.6567 76.6667 69.1542 77.1642 69.6517C77.1642 70.6468 77.6617 71.6418 77.6617 72.6368C77.6617 74.1294 77.1642 75.1244 77.1642 75.1244C77.1642 75.1244 75.1741 75.6219 73.1841 75.6219C69.7015 75.6219 65.7214 75.1244 62.7363 75.1244C61.2438 75.6219 60.2488 74.1294 57.7612 77.6119C57.7612 78.607 55.7711 87.5622 54.2786 96.0199C54.2786 97.5124 54.7761 98.5075 56.2687 99.005C57.7612 99.005 58.7562 98.5075 59.2537 97.0149C60.2488 90.0498 61.7413 83.0846 62.2388 80.0995C64.7264 80.0995 68.7065 80.597 72.6866 80.597C75.1741 80.597 77.6617 80.597 79.6517 79.602C82.1393 77.6119 82.6368 75.1244 82.6368 72.6368C82.6368 71.1443 82.6368 69.6517 82.1393 68.1592V67.6617L83.1343 66.6667C84.6269 64.1791 84.1294 62.6866 84.1294 62.6866C84.6269 62.1891 84.6269 61.194 84.6269 60.6965C84.6269 59.7015 84.1294 58.7065 84.1294 58.209C85.6219 57.7114 89.1045 57.7114 90.0995 53.7313V53.2338C89.602 48.7562 84.6269 43.7811 82.1393 39.801C81.1443 40.2985 81.1443 39.801 81.1443 39.801V39.3035C81.1443 38.3085 81.6418 37.3134 81.6418 35.3234C81.6418 34.3284 81.6418 33.8308 81.6418 32.8358C81.6418 29.8507 81.1443 26.3682 80.1493 24.3781C79.6517 23.8806 80.1493 23.8806 79.6517 23.8806C79.6517 23.8806 79.6517 23.3831 79.6517 22.3881C80.1493 21.393 80.6468 20.398 80.6468 18.9055ZM48.806 0H45.8209C42.3383 0 39.8507 2.98507 39.8507 6.46766V26.3682C33.8806 29.3532 29.9005 35.3234 29.9005 42.2886C29.9005 51.7413 37.8607 59.7015 47.3134 59.7015C49.801 59.7015 51.791 59.204 53.7811 58.209C56.2687 62.1891 60.2488 65.1741 64.7264 66.6667C65.7214 68.1592 67.2139 69.6517 69.204 69.6517C71.6915 69.6517 74.1791 67.6617 74.1791 64.6766C74.1791 62.1891 72.1891 59.7015 69.204 59.7015C67.7114 59.7015 66.2189 60.6965 65.2239 61.6915C62.2388 60.6965 59.7512 58.7065 57.7612 55.7214C61.7413 52.7363 64.2289 47.7612 64.2289 42.2886C64.2289 35.3234 60.2488 29.3532 54.2786 26.3682V6.46766C54.7761 2.98507 51.791 0 48.806 0ZM44.8259 6.46766C44.8259 5.47264 45.3234 4.97512 45.8209 4.97512H48.3085C49.3035 4.97512 49.801 5.47264 49.801 6.46766V24.8756C48.806 24.8756 48.3085 24.8756 47.3134 24.8756C46.3184 24.8756 45.8209 24.8756 44.8259 24.8756V6.46766ZM59.7512 42.2886C59.7512 48.7562 54.2786 54.7264 47.3134 54.7264C40.3483 54.7264 34.8756 48.7562 34.8756 42.2886C34.8756 35.3234 40.3483 29.8507 47.3134 29.8507C54.2786 29.8507 59.7512 35.3234 59.7512 42.2886ZM33.8806 2.98507C22.4378 7.46269 11.4925 16.9154 10 30.8458C10 32.3383 10 33.8308 10 34.8259C10 52.7363 21.9403 70.1493 21.9403 71.6418C21.9403 72.6368 19.9502 79.1045 17.4627 85.5721C16.9652 87.0647 17.4627 88.0597 18.9552 88.5572C20.4478 89.0547 21.4428 88.5572 21.9403 87.0647C24.4279 80.597 26.4179 74.6269 26.9154 71.6418V71.1443C25.9204 66.1692 14.9751 51.2438 14.9751 34.8259C14.9751 33.8308 14.9751 32.3383 14.9751 31.3433C15.9701 19.9005 24.9254 11.4428 35.3731 7.46269C36.8657 6.96517 37.3632 5.47264 36.8657 4.47761C36.8657 2.98507 35.3731 2.48756 33.8806 2.98507Z" fill="currentColor"/>
</g>
<defs>
<clipPath id="clip0">
<rect width="79.602" height="100" fill="white" transform="translate(10)"/>
</clipPath>
</defs>
</svg>
