<svg width="100" height="100" viewBox="0 0 100 100" fill="none" xmlns="http://www.w3.org/2000/svg">
<g clip-path="url(#clip0)">
<path d="M87.9246 10.0503C87.9246 10.0503 81.392 10.0503 78.3769 10.0503V15.0754H87.9246C90.4372 15.0754 92.9498 17.0855 92.9498 20.1005V35.1759H8.02513V20.1005C8.02513 17.588 10.0352 15.0754 13.0503 15.0754H23.1005V10.0503C20.0854 10.0503 13.0503 10.0503 13.0503 10.0503C7.52261 10.0503 3 14.5729 3 20.1005V89.9498C3 95.4774 7.52261 100 13.0503 100H87.9246C93.4523 100 97.9749 95.4774 97.9749 89.9498V20.1005C97.9749 14.5729 93.4523 10.0503 87.9246 10.0503ZM92.9498 89.9498C92.9498 92.4624 90.9397 94.9749 87.9246 94.9749H13.0503C10.5377 94.9749 8.02513 92.9649 8.02513 89.9498V40.201H92.9498V89.9498Z" fill="currentColor"/>
<path d="M33.1507 0H28.1256V20.1005H33.1507V0Z" fill="currentColor"/>
<path d="M72.8492 0H67.8241V20.1005H72.8492V0Z" fill="currentColor"/>
<path d="M63.3015 10.0503H38.1759V15.0754H63.3015V10.0503Z" fill="currentColor"/>
<path d="M72.8492 50.2512V65.3266H87.9246V50.2512H72.8492ZM82.8995 59.799H77.8744V54.7738H82.8995V59.799Z" fill="currentColor"/>
<path d="M28.1256 69.8489H13.0502V84.9243H28.1256V69.8489ZM23.1005 79.8991H18.0754V74.874H23.1005V79.8991ZM48.2261 69.8489H33.1507V84.9243H48.2261V69.8489ZM43.201 79.8991H38.1759V74.874H43.201V79.8991ZM87.9246 69.8489H72.8492V84.9243H87.9246V69.8489ZM82.8995 79.8991H77.8744V74.874H82.8995V79.8991ZM67.8241 69.8489H52.7487V84.9243H67.8241V69.8489ZM62.799 79.8991H57.7739V74.874H62.799V79.8991Z" fill="currentColor"/>
<path d="M28.1256 50.2512H13.0502V65.3266H28.1256V50.2512ZM23.1005 59.799H18.0754V54.7738H23.1005V59.799ZM48.2261 50.2512H33.1507V65.3266H48.2261V50.2512ZM43.201 59.799H38.1759V54.7738H43.201V59.799ZM67.8241 50.2512H52.7487V65.3266H67.8241V50.2512ZM62.799 59.799H57.7739V54.7738H62.799V59.799Z" fill="currentColor"/>
</g>
<defs>
<clipPath id="clip0">
<rect width="94.9749" height="100" fill="white" transform="translate(3)"/>
</clipPath>
</defs>
</svg>
