<svg width="100" height="100" viewBox="0 0 100 100" fill="none" xmlns="http://www.w3.org/2000/svg">
<g clip-path="url(#clip0)">
<path d="M50.2655 17.0108C38.3186 17.0108 28.5841 26.7453 28.5841 38.6922C28.5841 50.6391 38.3186 60.3737 50.2655 60.3737C62.2124 60.3737 71.9469 50.6391 71.9469 38.6922C72.3894 26.7453 62.2124 17.0108 50.2655 17.0108ZM50.2655 55.5064C40.531 55.5064 33.0088 47.9843 33.0088 38.2498C33.0088 28.9577 40.9735 20.9931 50.2655 20.9931C60 20.9931 67.5221 28.5152 67.5221 38.2498C67.9646 47.9843 60 55.5064 50.2655 55.5064ZM90.531 38.2498C90.531 37.8073 90.0885 36.9223 89.646 36.4798L80.7965 28.5152L83.0088 16.5683C83.0088 16.1259 83.0088 15.2409 82.5664 14.7984C82.1239 14.3559 81.6814 13.9135 81.2389 13.9135L68.8496 12.586L63.5398 1.52409C63.0973 1.08161 62.6549 0.639135 62.2124 0.196657C61.7699 -0.245821 60.885 0.196657 60.4425 0.196657L50.2655 6.83383L39.646 1.08161C39.2035 0.639135 38.3186 0.639135 37.8761 0.639135C37.4336 1.08161 36.9911 1.52409 36.5487 1.96657L31.2389 13.0285L19.292 14.3559C18.8496 14.3559 17.9646 14.7984 17.9646 15.2409C17.5221 15.6834 17.0796 16.1259 17.5221 17.0108L19.7345 28.9577L10.885 36.9223C10.4425 37.3648 10 37.8073 10 38.6922C10 39.1347 10.4425 40.0197 10.885 40.4621L19.7345 48.4267L17.5221 60.3737C17.5221 60.8161 17.5221 61.7011 17.9646 62.1436C17.9646 62.1436 18.8496 62.586 19.292 62.586L23.7168 63.0285L10.885 85.5949C10.4425 86.4798 10.4425 87.3648 10.885 87.8073C11.3274 88.6922 12.2124 88.6922 13.0973 88.6922L26.3717 87.3648L31.2389 99.3117C31.6814 100.197 32.1239 100.639 33.0088 100.639C33.8938 100.639 34.7788 100.197 35.2212 99.7542L50.2655 73.2055L65.3097 99.7542C65.7522 100.639 66.6372 101.082 67.5221 100.639C68.4071 100.639 69.292 100.197 69.292 99.3117L74.1593 87.3648L87.4336 88.6922C88.3186 88.6922 89.2035 88.2498 89.646 87.8073C90.0885 86.9223 90.0885 86.0374 89.646 85.5949L76.8142 63.0285L81.2389 62.586C81.6814 62.586 82.5664 62.1436 82.5664 61.7011C83.0088 61.2586 83.0088 60.3736 83.0088 59.9312L80.7965 47.9843L89.646 40.0197C90.531 39.5772 90.531 39.1347 90.531 38.2498ZM33.4513 93.5595L29.469 84.2675C29.0265 83.3825 28.1416 82.94 27.2566 82.94L16.6372 83.825L28.1416 63.471L31.2389 63.9135L36.5487 74.9754C36.9911 75.4179 37.4336 75.8604 37.8761 76.3029C38.3186 76.3029 39.2035 76.3029 39.646 76.3029L45.3982 72.763L33.4513 93.5595ZM83.8938 83.825L73.2743 82.94C72.3894 82.94 71.5044 83.3825 71.0619 84.2675L67.0796 93.5595L55.1327 72.763L60.885 75.8604C61.3274 76.3029 62.2124 76.3029 62.6549 75.8604C63.0973 75.4179 63.5398 75.4179 63.9823 74.5329L69.292 63.471L72.3894 63.0285L83.8938 83.825ZM77.2566 45.7719C76.3717 46.2144 76.3717 47.0993 76.3717 47.9843L78.5841 58.6037L73.7168 59.0462H72.8319L67.5221 59.9312C66.6372 59.9312 66.1947 60.3736 65.7522 61.2586L60.885 70.9931L51.1504 65.6834C50.708 65.2409 49.823 65.2409 48.9381 65.6834L39.2035 70.9931L34.3363 61.2586C33.8938 60.3736 33.4513 59.9312 32.5664 59.9312L27.2566 59.4887C26.8142 59.4887 26.3717 59.4887 25.9292 59.4887L21.0619 59.0462L23.2743 48.4267C23.2743 47.5418 23.2743 47.0993 22.3894 46.2144L15.3097 38.6922L23.2743 31.1701C23.7168 30.7276 24.1593 29.8427 24.1593 28.9577L21.9469 18.3383L33.0088 17.0108C33.8938 17.0108 34.3363 16.5683 34.7788 15.6834L39.646 5.94887L49.3805 11.2586C49.823 11.7011 50.708 11.7011 51.5929 11.2586L61.3274 5.94887L66.1947 15.6834C66.6372 16.5683 67.0796 17.0108 67.9646 17.0108L78.5841 18.3383L76.3717 28.9577C76.3717 29.8427 76.3717 30.2852 77.2566 31.1701L85.2212 38.2498L77.2566 45.7719Z" fill="currentColor"/>
</g>
<defs>
<clipPath id="clip0">
<rect width="80.531" height="100" fill="white" transform="translate(10)"/>
</clipPath>
</defs>
</svg>
