<svg width="100" height="100" viewBox="0 0 100 100" fill="none" xmlns="http://www.w3.org/2000/svg">
<path d="M81.4584 8.93994H70.9984C69.6584 8.93994 68.5984 10.0199 68.5984 11.3399V16.4399C68.5984 17.7799 69.6784 18.8399 70.9984 18.8399H77.4384C78.2184 18.8399 78.8584 19.4799 78.8584 20.2599V88.62C78.8584 89.4 78.2184 90.0399 77.4384 90.0399H22.0184C21.6418 90.0399 21.2806 89.8903 21.0143 89.624C20.748 89.3577 20.5984 88.9966 20.5984 88.62V20.2799C20.5984 19.4999 21.2384 18.8599 22.0184 18.8599H28.4584C29.7984 18.8599 30.8584 17.7799 30.8584 16.4599V11.3599C30.8584 10.0199 29.7784 8.95994 28.4584 8.95994H18.0184C17.0547 8.95466 16.0995 9.14024 15.2079 9.50599C14.3162 9.87173 13.5059 10.4104 12.8235 11.0909C12.1411 11.7714 11.6003 12.5803 11.2321 13.4709C10.8639 14.3615 10.6757 15.3162 10.6784 16.2799V92.66C10.6784 94.6066 11.4517 96.4736 12.8282 97.8501C14.2047 99.2266 16.0717 99.9999 18.0184 99.9999H81.4584C83.4051 99.9999 85.272 99.2266 86.6485 97.8501C88.025 96.4736 88.7984 94.6066 88.7984 92.66V16.2799C88.7984 14.3333 88.025 12.4663 86.6485 11.0898C85.272 9.71326 83.4051 8.93994 81.4584 8.93994V8.93994Z" fill="currentColor"/>
<path d="M38.4983 18.86H60.9783C61.2443 18.8627 61.5082 18.8123 61.7545 18.7117C62.0008 18.6111 62.2245 18.4624 62.4126 18.2743C62.6007 18.0862 62.7494 17.8625 62.85 17.6162C62.9506 17.3699 63.001 17.106 62.9983 16.84V10.96C63.001 10.694 62.9506 10.4301 62.85 10.1838C62.7494 9.93754 62.6007 9.71379 62.4126 9.52569C62.2245 9.33758 62.0008 9.18888 61.7545 9.08832C61.5082 8.98775 61.2443 8.93733 60.9783 8.94H58.6783C58.6783 6.56896 57.7364 4.29504 56.0599 2.61847C54.3833 0.94189 52.1094 0 49.7383 0C47.3673 0 45.0934 0.94189 43.4168 2.61847C41.7402 4.29504 40.7983 6.56896 40.7983 8.94H38.4983C38.2323 8.93733 37.9684 8.98775 37.7222 9.08832C37.4759 9.18888 37.2521 9.33758 37.064 9.52569C36.8759 9.71379 36.7272 9.93754 36.6266 10.1838C36.5261 10.4301 36.4757 10.694 36.4783 10.96V16.84C36.4757 17.106 36.5261 17.3699 36.6266 17.6162C36.7272 17.8625 36.8759 18.0862 37.064 18.2743C37.2521 18.4624 37.4759 18.6111 37.7222 18.7117C37.9684 18.8123 38.2323 18.8627 38.4983 18.86V18.86ZM49.7383 5.18C51.8183 5.18 53.4983 6.86 53.4983 8.94H45.9583C45.9688 7.94258 46.3711 6.98927 47.0782 6.28582C47.7854 5.58238 48.7409 5.18519 49.7383 5.18ZM72.3383 32.24C72.3383 31.52 71.6583 30.94 70.8383 30.94H52.1583C51.3383 30.94 50.6583 31.52 50.6583 32.24V36.6C50.6583 37.32 51.3383 37.9 52.1583 37.9H70.8383C71.6583 37.9 72.3383 37.32 72.3383 36.6V32.24ZM52.1583 49.26H62.2583C63.0783 49.26 63.7583 48.68 63.7583 47.96V43.6C63.7583 42.88 63.0783 42.3 62.2583 42.3H52.1583C51.3383 42.3 50.6583 42.88 50.6583 43.6V47.96C50.6583 48.68 51.3383 49.26 52.1583 49.26ZM25.1183 40.54C25.0578 41.9562 25.2847 43.3699 25.7853 44.696C26.2858 46.0221 27.0497 47.2332 28.0309 48.2561C29.012 49.2791 30.1901 50.0928 31.4942 50.6483C32.7983 51.2037 34.2013 51.4894 35.6188 51.488C37.0362 51.4867 38.4387 51.1984 39.7417 50.6404C41.0447 50.0825 42.2213 49.2665 43.2005 48.2417C44.1797 47.2168 44.9413 46.0043 45.4393 44.6773C45.9373 43.3502 46.1615 41.936 46.0983 40.52C45.9777 37.8172 44.8185 35.2653 42.8624 33.3963C40.9063 31.5273 38.3042 30.4855 35.5988 30.488C32.8933 30.4906 30.2932 31.5374 28.3407 33.4101C26.3881 35.2829 25.2338 37.837 25.1183 40.54V40.54ZM30.5183 38.94L34.7583 43.18L40.5383 35.1L42.7183 36.66L35.0983 47.32L28.6383 40.86L30.5183 38.94V38.94ZM35.5983 60.02C32.8189 60.02 30.1532 61.1241 28.1878 63.0895C26.2225 65.0549 25.1183 67.7205 25.1183 70.5C25.1183 73.2795 26.2225 75.9451 28.1878 77.9105C30.1532 79.8759 32.8189 80.98 35.5983 80.98C38.3778 80.98 41.0434 79.8759 43.0088 77.9105C44.9742 75.9451 46.0783 73.2795 46.0783 70.5C46.0783 67.7205 44.9742 65.0549 43.0088 63.0895C41.0434 61.1241 38.3778 60.02 35.5983 60.02V60.02ZM35.0983 77.26L28.6383 70.8L30.5383 68.9L34.7783 73.14L40.5583 65.06L42.7383 66.62L35.0983 77.26V77.26ZM72.3383 67.02V62.66C72.3383 61.94 71.6583 61.36 70.8383 61.36H52.1583C51.3383 61.36 50.6583 61.94 50.6583 62.66V67.02C50.6583 67.74 51.3383 68.32 52.1583 68.32H70.8383C71.6783 68.32 72.3383 67.74 72.3383 67.02ZM52.1583 72.7C51.3383 72.7 50.6583 73.28 50.6583 74V78.36C50.6583 79.08 51.3383 79.66 52.1583 79.66H62.2583C63.0783 79.66 63.7583 79.08 63.7583 78.36V74C63.7583 73.28 63.0783 72.7 62.2583 72.7H52.1583Z" fill="currentColor"/>
</svg>
