<svg width="100" height="100" viewBox="0 0 100 100" fill="none" xmlns="http://www.w3.org/2000/svg">
<path d="M99.6815 49.7815C99.6815 22.6782 77.5564 0 49.9 0C22.7967 0 0.671631 22.1251 0.671631 49.7815C0.671631 77.4379 22.7967 99.563 50.4531 99.563C77.5564 99.0099 99.6815 76.8848 99.6815 49.7815ZM50.4531 93.4786C26.1155 93.4786 6.20291 73.566 6.20291 49.2284C6.20291 24.8908 26.1155 4.97815 50.4531 4.97815C74.7908 4.97815 94.7034 24.8908 94.7034 49.2284C94.1503 74.1191 74.7908 93.4786 50.4531 93.4786ZM50.4531 51.4409V19.9126C50.4531 18.2532 49.3469 17.147 47.6875 17.147C46.0281 17.147 44.9219 18.2532 44.9219 19.9126V54.2065L67.047 69.141C68.1532 70.2473 69.8126 69.6941 70.9189 68.5879C72.0251 67.4816 71.472 65.8222 70.3658 64.716L50.4531 51.4409Z" fill="currentColor"/>
</svg>
