<svg width="100" height="100" viewBox="0 0 100 100" fill="none" xmlns="http://www.w3.org/2000/svg">
<path d="M93.3051 62.792L76.4338 50.7128C75.2061 49.8217 74.1764 50.3564 74.1764 51.8613V58.8118C66.513 58.8118 60.1962 60.8118 55.3645 64.7524V21.0297H62.9487C64.4734 21.0297 64.9883 20.0198 64.0972 18.7723L52.018 1.90102C51.1269 0.673294 49.6814 0.673294 48.7903 1.90102L36.7111 18.7723C35.82 20 36.3547 21.0297 37.8596 21.0297H45.4438V48.594C42.7845 45.7573 39.5696 43.4986 35.9992 41.9587C32.4288 40.4188 28.5796 39.6307 24.6913 39.6435V32.1782C24.6913 30.6534 23.6814 30.1386 22.4339 31.0297L5.56264 43.1089C4.33492 44 4.33492 45.4455 5.56264 46.3366L22.4339 58.4158C23.6616 59.3069 24.6913 58.7722 24.6913 57.2673V49.5643C32.1963 49.7623 37.721 53.1485 41.5824 59.9405C43.5208 63.4776 44.8339 67.3229 45.4636 71.3069V99.9999H55.3645V86.7326C55.4041 84.7722 55.8992 78.1385 60.2952 73.5841C63.4239 70.3366 68.0972 68.693 74.1764 68.693V76.9108C74.1764 78.4356 75.1863 78.9504 76.4338 78.0593L93.3051 65.9801C94.5328 65.1088 94.5328 63.6633 93.3051 62.792V62.792Z" fill="currentColor"/>
</svg>
