<svg width="100" height="100" viewBox="0 0 100 100" fill="none" xmlns="http://www.w3.org/2000/svg">
<path d="M23.0895 28.8599H58.7495V35.3799H23.0895V28.8599Z" fill="currentColor"/>
<path d="M34.6695 80.78H15.5695V22.72H30.9895V7.32H66.3695V38.9C68.9095 39.48 71.3695 40.38 73.7095 41.62V0H31.0095L23.6695 7.32L15.5695 15.42L8.26951 22.7H8.24951V88.12H40.3695L39.6095 87.44C37.6513 85.469 35.9875 83.2259 34.6695 80.78V80.78Z" fill="currentColor"/>
<path d="M39.6095 46.6201C42.1545 44.0791 45.1529 42.0372 48.4495 40.6001H23.0895V47.1201H39.1495L39.6095 46.6201V46.6201ZM35.1895 52.3801H23.0895V58.9001H32.3295C33.0115 56.6176 33.972 54.4277 35.1895 52.3801V52.3801ZM23.0895 64.1401V70.6601H31.4095C31.1263 68.4978 31.0928 66.3101 31.3095 64.1401H23.0895ZM91.3895 88.0601L80.5295 79.6401C83.6195 74.6147 84.7572 68.6298 83.7267 62.821C82.6961 57.0123 79.5691 51.784 74.9389 48.1283C70.3087 44.4725 64.4976 42.6436 58.6083 42.9887C52.719 43.3338 47.1613 45.8288 42.9898 50.0003C38.8183 54.1719 36.3232 59.7296 35.9781 65.6189C35.6331 71.5082 37.4619 77.3193 41.1177 81.9495C44.7735 86.5796 50.0018 89.7067 55.8105 90.7372C61.6192 91.7678 67.6041 90.6301 72.6295 87.5401L81.0495 98.4001C81.4108 98.8625 81.8657 99.2432 82.3846 99.5173C82.9034 99.7914 83.4743 99.9526 84.0598 99.9903C84.6454 100.028 85.2323 99.9416 85.782 99.7365C86.3317 99.5313 86.8319 99.2122 87.2495 98.8001L91.7895 94.2601C93.5295 92.4801 93.3495 89.5801 91.3895 88.0601ZM48.1495 78.8801C46.5875 77.3256 45.3486 75.4774 44.5042 73.4418C43.6597 71.4063 43.2265 69.2238 43.2295 67.0201H63.7695V56.8201H46.7095C48.0831 54.9322 49.8351 53.3514 51.8538 52.1784C53.8724 51.0054 56.1134 50.2661 58.4337 50.0075C60.754 49.7489 63.1028 49.9768 65.3301 50.6767C67.5575 51.3765 69.6145 52.5329 71.3699 54.0721C73.1254 55.6113 74.5408 57.4994 75.5258 59.6162C76.5109 61.7329 77.0439 64.0317 77.0909 66.3659C77.1379 68.7001 76.6978 71.0185 75.7988 73.1732C74.8998 75.3279 73.5616 77.2715 71.8695 78.8801C68.7205 82.0189 64.4557 83.7814 60.0095 83.7814C55.5634 83.7814 51.2986 82.0189 48.1495 78.8801Z" fill="currentColor"/>
</svg>
