<svg width="100" height="100" viewBox="0 0 100 100" fill="none" xmlns="http://www.w3.org/2000/svg">
<path d="M62.082 59.8106C59.3609 57.269 56.1328 55.3321 52.6098 54.1272C46.0327 51.6321 39.6925 48.5526 33.6652 44.9256C30.5874 42.962 27.9962 40.3246 26.0874 37.2124C23.9081 33.5709 23.1186 29.2642 23.8647 25.0864C24.6107 20.9085 26.8419 17.1412 30.147 14.479C34.6125 10.8254 40.0252 8.66035 46.6558 8.38972V0H57.8872V9.06631C61.263 9.71738 64.5387 10.8093 67.6301 12.3139C70.3364 13.6671 73.4487 16.1028 77.1023 19.3505L65.6003 29.2287C60.4582 24.4926 55.3161 22.0568 50.174 22.0568C47.197 22.0568 44.7613 22.7334 42.8669 24.2219C40.9724 25.5751 40.0252 27.3342 40.0252 29.2287C40.0252 30.7172 40.8371 32.341 42.4609 33.8295C44.0847 35.4533 47.4677 37.2124 52.3391 38.9716C61.1348 42.2192 67.2241 45.0609 70.4717 47.3613C73.5955 49.4261 76.1498 52.2433 77.8997 55.5538C79.6495 58.8643 80.5386 62.5617 80.4853 66.3058C80.3499 70.3654 79.4027 74.0189 77.5083 77.4019C75.8113 80.6497 73.35 83.4361 70.3364 85.521C66.4799 87.8308 62.2017 89.3489 57.7518 89.9865V100H46.6558V90.2571C41.3784 89.7158 37.0482 88.6333 33.3946 86.7388C28.3376 84.2473 23.6847 81.0084 19.5922 77.1313L30.8236 66.7118C38.1307 73.4777 45.3026 77.1313 52.0685 77.1313C55.4514 77.1313 58.4284 76.0487 60.8642 73.8836C61.9026 73.0818 62.7659 72.0758 63.4007 70.9276C64.0355 69.7793 64.4284 68.5133 64.5552 67.2074C64.682 65.9015 64.54 64.5835 64.1379 63.3347C63.7358 62.0858 63.0822 60.9325 62.2173 59.9459L62.082 59.8106Z" fill="currentColor"/>
</svg>
