<svg width="100" height="100" viewBox="0 0 100 100" fill="none" xmlns="http://www.w3.org/2000/svg">
<g clip-path="url(#clip0)">
<path d="M76.8885 60.0835C75.7601 60.0835 74.8308 59.1543 74.8308 58.0259C74.8308 50.3262 74.8972 37.5156 74.8972 37.5156H79.0789C79.0789 37.5156 79.0125 50.2598 79.0125 57.9595C79.0125 59.0879 78.0833 60.0172 76.8885 60.0835C76.9549 60.0835 76.9549 60.0835 76.8885 60.0835ZM29.8277 60.6809C28.6993 60.6809 27.77 59.7517 27.77 58.5569V37.0509C27.77 35.9225 28.6993 34.9933 29.8277 34.9933C30.9561 34.9933 31.8853 35.9225 31.8853 37.0509V58.5569C31.9517 59.6853 31.0224 60.6145 29.8277 60.6809ZM83.1942 32.0063C82.7296 32.0063 82.265 31.8072 81.8667 31.5417L74.4989 25.3023C73.7024 24.5058 73.7024 23.1783 74.4989 22.3818C75.2291 21.6516 76.3575 21.5852 77.154 22.1162L84.5218 28.2892C85.3847 29.0194 85.5174 30.3469 84.7873 31.2098C84.389 31.6744 83.7916 31.94 83.1942 32.0063ZM23.8538 31.0771C22.7254 31.0771 21.7297 30.1478 21.7297 29.0194C21.7297 28.3556 21.9952 27.7582 22.5263 27.36L52.2629 3.46449C53.0594 2.8671 54.1878 2.8671 54.9179 3.53086C54.9843 3.59724 62.3521 10.1685 68.9897 15.6777C69.919 16.3415 70.1845 17.6027 69.5207 18.5983C68.857 19.5276 67.5958 19.7931 66.6002 19.1293C66.4674 19.0629 66.401 18.9966 66.3347 18.8638C61.3564 14.7485 55.9136 9.96937 53.524 7.77895L25.1813 30.6124C24.783 30.8779 24.3184 31.0771 23.8538 31.0771Z" fill="currentColor"/>
<path d="M74.6981 24.8377C73.5697 24.8377 72.6404 23.9084 72.6404 22.78V7.51348C72.6404 6.38508 73.5697 5.45581 74.6981 5.45581C75.8265 5.45581 76.7558 6.38508 76.7558 7.51348V22.78C76.7558 23.9084 75.8265 24.8377 74.6981 24.8377ZM67.7286 18.5983C66.6002 18.5983 65.6709 17.6691 65.6709 16.5407V10.3013C65.6709 9.17289 66.6002 8.24362 67.7286 8.24362C68.857 8.24362 69.7862 9.17289 69.7862 10.3013V16.5407C69.7862 17.6691 68.857 18.5983 67.7286 18.5983Z" fill="currentColor"/>
<path d="M76.7558 8.90754H64.9408C63.8124 8.84117 62.8831 7.84552 62.9495 6.71712C63.0158 5.6551 63.8787 4.79221 64.9408 4.72583H76.7558C77.8842 4.79221 78.8134 5.78785 78.747 6.91625C78.6807 7.97827 77.8178 8.84117 76.7558 8.90754ZM77.0213 39.1752C76.5566 39.1752 76.092 38.976 75.6937 38.7105L53.5904 20.1915L31.1552 38.1132C30.2259 38.8433 28.9648 38.7105 28.2346 37.7813C27.5045 36.852 27.6372 35.5908 28.5665 34.8607L52.3292 15.8771C53.1258 15.2133 54.1878 15.2133 54.9843 15.8771L78.4152 35.4581C79.2781 36.1882 79.4108 37.5158 78.6807 38.3787C78.2824 38.8433 77.685 39.1088 77.0213 39.1752ZM45.4925 63.8008C44.3641 63.8008 43.4348 62.8715 43.4348 61.7431V44.2862C43.4348 43.1578 44.3641 42.2285 45.4925 42.2285H61.8211C62.9495 42.2285 63.8787 43.1578 63.8787 44.2862V58.1588C63.8787 59.2872 62.9495 60.2165 61.8211 60.2165C60.6927 60.2165 59.7634 59.2872 59.7634 58.1588V46.4102H47.5502V61.6768C47.5502 62.8052 46.6209 63.7344 45.4925 63.8008Z" fill="currentColor"/>
<path d="M4.00723 85.3731L0.821167 82.7181L13.1672 68.1152C15.5567 65.2611 23.1236 62.1414 27.6372 62.1414C31.4207 62.1414 41.5763 63.8008 43.4348 64.1327C46.0899 63.8671 59.9625 62.6724 64.5425 63.9335C67.3967 64.73 71.2465 67.5842 71.7111 67.9161C71.9766 68.1152 72.2421 68.3807 72.3749 68.7126C73.1714 70.4384 73.9016 73.89 71.3793 76.0804C69.388 77.8062 65.6045 78.4036 61.5556 79.1337C59.7634 79.4656 58.0376 79.7311 56.7101 80.063C54.7852 80.594 52.5284 80.3949 50.0724 80.1958C46.2226 79.9302 41.9081 79.5984 38.4566 81.8552C37.5273 82.5189 36.1998 82.2534 35.536 81.3242C34.8722 80.3949 35.1378 79.0674 36.067 78.4036L36.1334 78.3372C40.7797 75.3503 46.0235 75.7485 50.2716 76.0804C52.3292 76.2132 54.3205 76.3459 55.5817 76.014C57.1083 75.6158 59.0332 75.2839 60.8254 74.952C63.6796 74.4874 67.5294 73.8236 68.6578 72.8943C69.1225 72.4961 68.9233 71.5668 68.7242 70.9031C67.4631 69.9738 64.9407 68.3807 63.4141 67.9825C60.3608 67.1196 49.8733 67.7834 43.5676 68.3807C43.3684 68.3807 43.2357 68.3807 43.0365 68.3807C42.9038 68.3807 31.4207 66.4558 27.7036 66.4558C24.252 66.4558 17.8799 69.1773 16.4196 70.9694L4.00723 85.3731Z" fill="currentColor"/>
<path d="M20.9333 96.458C19.8049 96.458 18.8756 95.5288 18.8756 94.4004C18.8756 93.6702 19.2075 93.0065 19.8713 92.6082C20.2031 92.4091 27.3054 87.9619 32.9474 87.1653C36.7972 86.6343 49.0105 87.099 50.4044 87.1653L56.6438 86.7671C66.6666 81.1251 82.8624 71.6333 84.9865 69.5092C87.3097 67.186 91.956 63.1371 94.5447 60.9467C93.2835 60.4157 91.8232 60.1501 90.4293 60.2829C86.1149 60.482 77.5523 66.3895 74.5654 68.5799C73.6361 69.2437 72.3086 69.111 71.6448 68.1817C70.9811 67.2524 71.1138 65.9249 72.0431 65.2611C73.1715 64.3982 83.7917 56.4331 90.1638 56.1012C97.3325 55.7029 99.3238 59.6855 99.5229 60.1501C99.9212 61.013 99.6557 62.0087 98.9919 62.6061C98.9255 62.6725 91.0267 69.3101 87.9734 72.4298C84.6546 75.7486 61.0246 89.0902 58.3032 90.6169C58.0377 90.7497 57.7058 90.8824 57.4403 90.8824L50.6699 91.347H50.4708C46.8201 91.2143 36.6645 90.8824 33.6775 91.347C28.8984 92.0108 22.3272 96.1261 22.2608 96.1925C21.7298 96.3916 21.3315 96.458 20.9333 96.458Z" fill="currentColor"/>
</g>
<defs>
<clipPath id="clip0">
<rect width="100" height="93.4579" fill="white" transform="translate(0 3)"/>
</clipPath>
</defs>
</svg>
