<svg width="100" height="100" viewBox="0 0 100 100" fill="none" xmlns="http://www.w3.org/2000/svg">
<g clip-path="url(#clip0)">
<path d="M98.8614 31.7266L81.3832 13.8323C80.5509 13.4161 79.7187 13 78.8864 13C78.0541 13 77.2218 13.4161 76.8056 13.8323L67.2343 22.1552C66.402 22.9875 65.9858 23.8198 65.9858 25.0682C65.9858 25.9005 65.9858 26.3167 66.402 26.7328C65.1535 27.5651 63.4889 29.2297 62.2405 30.062C61.4082 30.062 58.079 27.9813 53.9176 27.9813C52.6691 27.9813 51.4207 27.9813 50.1723 28.3974C48.9238 27.9813 47.6754 27.9813 46.8431 27.9813C42.6816 27.9813 39.3524 30.062 38.5202 30.062C36.8556 29.2297 35.191 27.9813 34.3587 27.149C34.7748 26.3167 34.7748 25.9005 34.7748 25.0682C34.7748 24.236 34.3587 22.9875 33.5264 22.1552L23.955 13.8323C23.1227 13.4161 22.2904 13 21.4581 13C20.6259 13 19.7936 13.4161 18.9613 14.2484L1.48311 32.1427C1.06696 32.975 0.650818 33.8073 0.650818 34.6396C0.650818 35.4719 1.06696 35.8881 1.48311 36.7204L8.5576 47.9563C9.38989 48.7886 10.2222 49.2047 11.4706 49.2047C12.7191 49.2047 13.5514 48.7886 14.3837 47.9563C15.2159 48.7886 16.4644 49.6209 17.2967 50.8693C21.4581 55.0308 18.129 57.9438 23.955 64.6022C22.7066 65.8506 22.2904 67.5152 22.2904 69.1798C22.2904 70.8444 22.7066 72.509 23.955 73.7574C25.2035 75.0058 26.4519 75.422 28.1165 75.422C28.1165 77.0866 28.9488 78.335 29.7811 79.5834C31.0295 80.8319 32.278 81.248 33.9425 81.248C33.9425 82.9126 34.7748 84.1611 35.6071 85.4095C36.8556 86.6579 38.5201 87.0741 39.7686 87.0741C41.4332 87.0741 43.0978 86.2418 43.9301 85.4095C44.7623 86.2418 46.0108 86.6579 47.2592 86.6579C48.9238 86.6579 50.1723 86.2418 51.4207 84.9933C51.8368 84.5772 51.8368 84.1611 52.253 83.7449C53.5014 84.5772 54.7499 85.4095 55.9983 85.4095C57.6629 85.4095 58.9113 84.9933 60.1598 83.7449C60.5759 83.3288 60.9921 82.9126 60.9921 82.4965C61.8244 82.9126 62.6567 82.9126 63.4889 82.9126C65.1535 82.9126 66.402 82.4965 67.6504 81.248C68.8988 79.9996 69.315 78.7511 69.315 77.0866C69.315 75.8381 68.8988 74.5897 68.0666 73.3412C68.4827 72.9251 69.315 72.509 69.7311 72.0928C70.9796 70.8444 71.3957 69.5959 71.3957 67.9313C71.3957 67.5152 71.3957 66.6829 70.9796 66.2668C72.228 65.0183 73.0603 64.186 73.0603 64.186C80.1348 56.6954 75.9733 53.7824 80.551 49.2047C81.7994 47.9563 83.0478 46.7079 83.8801 45.8756L85.5447 47.5402C86.377 48.3725 87.6254 48.7886 88.8739 48.7886C89.7062 48.7886 90.9546 48.3725 91.7869 47.5402L98.8614 36.7204C99.2775 36.3042 99.6937 35.4719 99.6937 34.6396C99.6937 33.3912 99.2775 32.5589 98.8614 31.7266ZM13.1352 42.9625L12.3029 43.7948L11.8868 44.211L11.4706 44.6271L4.81228 34.6396L21.4581 17.5776L30.1972 25.0682V25.4844L29.3649 25.9005V26.7328L13.1352 42.9625ZM29.7811 70.4282C29.3649 70.8444 28.9488 71.2605 28.5326 71.2605C28.1165 71.2605 27.7003 71.2605 27.2842 70.8444C26.868 70.4282 26.868 70.0121 26.868 69.1798C26.868 68.7636 26.868 67.9313 27.2842 67.5152C27.7003 67.099 28.1165 67.099 28.5326 67.099C28.9488 67.099 29.3649 67.099 29.7811 67.5152C30.1972 67.9313 30.1972 68.3475 30.1972 69.1798C30.6134 69.5959 30.1972 70.0121 29.7811 70.4282ZM35.6071 76.6704C35.191 77.0866 34.7748 77.0866 34.3587 77.0866C33.9425 77.0866 33.5264 77.0866 33.1102 76.6704C32.6941 76.2543 32.6941 75.8381 32.6941 75.0058C32.6941 74.5897 32.6941 73.7574 33.1102 73.3412C33.5264 72.9251 33.9425 72.9251 34.3587 72.9251C34.7748 72.9251 35.191 72.9251 35.6071 73.3412C36.0233 73.7574 36.0233 74.1735 36.0233 75.0058C36.0233 75.422 36.0233 76.2543 35.6071 76.6704ZM41.017 82.4965C40.6009 82.9126 40.1847 82.9126 39.7686 82.9126C39.3524 82.9126 38.9363 82.9126 38.5202 82.4965C38.104 82.0803 38.104 81.248 38.104 80.8319C38.104 80.4157 38.104 79.5834 38.5202 79.5834C38.9363 79.1673 39.3524 79.1673 39.7686 79.1673C40.1847 79.1673 40.6009 79.1673 41.017 79.5834C41.4332 79.9996 41.4332 80.4157 41.4332 81.248C41.8493 81.248 41.4332 82.0803 41.017 82.4965ZM66.8181 68.7636C66.402 69.1798 65.9858 69.1798 65.5697 69.1798C65.1535 69.1798 64.7374 69.1798 64.3212 68.7636L50.1723 54.1985C49.34 53.3662 48.0915 53.3662 47.2592 54.1985C46.4269 55.0308 46.4269 56.2792 47.2592 57.1115L50.5884 60.4407L51.0045 60.8568L65.1535 75.422C65.5697 75.8381 65.5697 76.2543 65.5697 76.6704C65.5697 77.0866 65.5697 77.5027 65.1535 77.9189C64.7374 78.335 64.3212 78.335 63.9051 78.335C63.4889 78.335 63.0728 78.335 62.6566 77.9189L61.4082 76.6704C60.9921 76.2543 60.9921 75.422 60.1598 75.0058L47.6754 62.1053C46.8431 61.273 45.5946 61.273 44.7624 62.1053C43.9301 62.9376 43.9301 63.7699 44.3462 64.6022C44.3462 65.0183 44.7624 65.4345 44.7624 65.8506L57.2467 78.7512V79.1673C57.2467 79.5834 57.2467 79.9996 56.8306 80.4157C56.4145 80.8319 55.9983 80.8319 55.5822 80.8319C55.166 80.8319 54.7499 80.8319 54.3337 80.4157L51.8368 77.9189C51.4207 77.5027 51.4207 77.0866 51.0045 76.6704L50.1723 76.2543L40.1847 65.8506C39.3524 65.0183 38.104 65.0183 37.2717 65.8506C36.4394 66.6829 36.4394 67.9313 37.2717 68.7636L48.5077 80.4157V80.8319C48.5077 81.248 48.5077 81.6642 48.0915 82.0803C47.6754 82.4965 47.2592 82.4965 46.8431 82.4965C46.4269 82.4965 46.0108 82.4965 45.5946 82.0803L45.1785 81.6642V81.248C45.1785 79.5834 44.7623 77.9189 43.5139 76.6704C42.2655 75.422 41.017 75.0058 39.3524 75.0058C39.3524 73.3412 38.5201 72.0928 37.6879 70.8444C36.4394 69.5959 35.191 69.1798 33.5264 69.1798C33.5264 67.5152 32.6941 66.2668 31.8618 65.0183C30.6134 63.7699 28.9488 63.3537 27.7003 63.3537H27.2842C21.8743 57.9438 26.0358 55.4469 19.7936 48.7886C19.3774 46.7079 18.129 45.8756 17.2967 45.0433L31.4457 30.4782C32.6941 31.7266 34.3587 32.975 35.6071 33.8073C36.4394 34.2235 37.2717 34.6396 37.6879 34.6396C39.7686 34.6396 41.8493 33.3912 43.9301 32.975C40.6009 36.3042 37.6879 38.3849 36.8556 38.3849C34.7748 38.3849 33.5264 38.3849 31.8618 38.8011C29.7811 39.2172 28.9488 41.7141 28.9488 43.3787V43.7948C28.9488 47.124 31.8618 51.7016 38.104 51.7016C40.1847 51.7016 42.2655 51.2855 44.7624 50.037C46.0108 49.6209 47.6754 48.7886 49.34 47.9563L66.8181 66.2668C67.2343 66.6829 67.2343 67.099 67.2343 67.5152C67.2343 67.9313 67.2343 68.3475 66.8181 68.7636ZM77.6379 46.2917C71.3957 53.3662 75.9733 55.8631 70.1473 60.8568C70.1473 60.8568 69.7311 61.273 68.4827 62.5214L50.5884 44.211C50.1723 43.7948 49.34 43.3787 48.9238 43.7948H48.5077H48.0915C46.4269 44.6271 43.9301 45.4594 42.2655 46.2917C40.6009 47.124 39.3524 47.5402 38.104 47.5402C34.3587 47.5402 33.1102 44.6271 33.1102 43.7948C33.1102 43.3787 33.1102 42.9625 33.1102 42.9625C33.5264 42.9625 34.7748 42.9625 36.8556 42.5464C40.6009 42.1303 43.5139 38.8011 47.2592 35.0558C49.7561 32.5589 51.4207 32.1427 53.5014 32.1427C56.4145 32.1427 58.9113 33.8073 62.2405 34.2235C63.0728 34.2235 63.9051 34.2235 64.3212 33.3912C65.5697 32.5589 67.6504 30.8943 68.8988 29.6459L81.3832 42.5464C80.5509 43.7948 78.8864 44.6271 77.6379 46.2917ZM88.8739 44.6271L70.1473 25.4844V25.0682L78.8864 17.5776L95.5322 34.6396L88.8739 44.6271ZM87.2093 38.3849C87.6254 38.3849 88.4577 38.3849 88.8739 37.9688C89.7062 37.1365 89.7062 35.8881 88.8739 35.0558C88.4577 34.6396 88.0416 34.6396 87.2093 34.6396C86.7931 34.6396 85.9609 34.6396 85.9609 35.0558C85.1286 35.8881 85.1286 37.1365 85.9609 37.9688C85.9609 38.3849 86.7931 38.3849 87.2093 38.3849ZM12.3029 34.2235C11.8868 34.2235 11.0545 34.2235 10.6383 34.6396C10.2222 35.8881 10.2222 37.1365 11.0545 37.9688C11.4706 38.3849 11.8868 38.3849 12.7191 38.3849C13.1352 38.3849 13.9675 38.3849 14.3837 37.9688C15.2159 37.1365 15.2159 35.8881 14.3837 35.0558C13.5514 34.6396 13.1352 34.2235 12.3029 34.2235Z" fill="currentColor"/>
</g>
<defs>
<clipPath id="clip0">
<rect width="100" height="74.0741" fill="white" transform="translate(0 13)"/>
</clipPath>
</defs>
</svg>
