<svg width="100" height="100" viewBox="0 0 100 100" fill="none" xmlns="http://www.w3.org/2000/svg">
<g clip-path="url(#clip0)">
<path d="M79.9977 67.3684C79.2082 67.3684 78.3985 67.1255 77.7103 66.6397L73.3176 64.0891C72.5888 63.664 72.3459 62.7328 72.771 62.004C73.1961 61.2753 74.1273 61.0324 74.856 61.4575L79.3095 64.0486C79.35 64.0688 79.3904 64.1093 79.4309 64.1296C79.9572 64.5142 80.4026 64.251 80.5848 64.1296C80.767 64.0081 81.1313 63.6437 80.9491 63.0364C80.9289 62.9757 80.9087 62.9352 80.9087 62.8745L77.1435 44.5951C76.6172 42.8138 77.2244 40.9109 78.7022 39.7976L92.3864 27.5506C92.4269 27.5101 92.4674 27.4899 92.5078 27.4494C93.0342 27.0648 92.9329 26.5587 92.8722 26.3563C92.8115 26.1538 92.5888 25.6883 91.941 25.6883C91.8803 25.6883 91.8196 25.6883 91.7589 25.668L73.3783 23.4818C71.5362 23.4413 69.9168 22.2672 69.3095 20.5263L61.7184 3.8664C61.6981 3.80567 61.6779 3.76518 61.6576 3.70445C61.4552 3.09717 60.9491 3.03644 60.7265 3.03644C60.5038 3.03644 59.9977 3.09717 59.7953 3.70445C59.7751 3.76518 59.7548 3.80567 59.7346 3.8664L52.1435 20.5263C51.5362 22.2672 49.9167 23.4413 48.0746 23.4818L29.7143 25.668C29.6536 25.668 29.5929 25.6883 29.5321 25.6883C28.8844 25.6883 28.6617 26.1538 28.601 26.3563C28.5402 26.5587 28.439 27.0648 28.9653 27.4494C29.0058 27.4696 29.0463 27.5101 29.0868 27.5506L42.771 39.7976C44.2487 40.9109 44.8763 42.8138 44.3297 44.5951L40.5645 62.8745C40.5443 62.9352 40.5443 62.9757 40.524 63.0364C40.3216 63.6437 40.7062 64.0081 40.8884 64.1296C41.0706 64.251 41.5159 64.5142 42.0423 64.1296C42.0827 64.1093 42.1232 64.0688 42.1637 64.0486L59.2892 53.9271C60.018 53.502 60.9491 53.7449 61.3742 54.4534C61.7993 55.1822 61.5564 56.1134 60.8479 56.5385L43.7831 66.6397C42.3661 67.6316 40.5443 67.6113 39.1273 66.5992C37.7103 65.5668 37.1435 63.8664 37.6495 62.2065L41.4147 43.9271C41.435 43.8664 41.435 43.8259 41.4552 43.7652C41.6374 43.1984 41.435 42.5709 40.9491 42.2267C40.9086 42.2065 40.8682 42.166 40.8277 42.1255L27.1435 29.8785C25.7669 28.8259 25.2204 27.1053 25.7467 25.4453C26.2933 23.7854 27.7305 22.7126 29.4714 22.6721L47.8317 20.4858C47.8925 20.4858 47.9532 20.4656 48.0139 20.4656C48.6212 20.4656 49.1475 20.081 49.3297 19.5142C49.3499 19.4534 49.3702 19.413 49.3904 19.3522L56.9815 2.69231C57.5078 1.05263 58.9856 0 60.7265 0C62.4674 0 63.9451 1.05263 64.5119 2.69231L72.103 19.3522C72.1232 19.413 72.1435 19.4534 72.1637 19.5142C72.3459 20.081 72.8722 20.4656 73.4795 20.4656C73.5402 20.4656 73.601 20.4656 73.6617 20.4858L92.022 22.6721C93.7427 22.7126 95.2002 23.7854 95.7467 25.4453C96.2933 27.1053 95.7467 28.8462 94.35 29.8785L80.6657 42.1053C80.6253 42.1457 80.5848 42.166 80.5443 42.2065C80.0585 42.5506 79.856 43.1781 80.0382 43.7449C80.0585 43.8057 80.0787 43.8462 80.0787 43.9069L83.8439 62.1862C84.35 63.8462 83.7629 65.5668 82.3661 66.5789C81.6576 67.1053 80.8277 67.3684 79.9977 67.3684Z" fill="currentColor"/>
<path d="M32.2244 25.3845C31.3944 25.3845 30.7062 24.7165 30.7062 23.8866L30.605 13.7449C30.443 12.1052 31.2932 10.6072 32.7912 9.91895C34.2892 9.21044 35.9693 9.53433 37.1232 10.6882L42.5483 15.3036C43.1961 15.8501 43.2568 16.8015 42.7102 17.4493C42.1637 18.0971 41.2123 18.1578 40.5645 17.6113L35.0787 12.9554C35.0382 12.9149 34.9977 12.8744 34.9572 12.8339C34.6131 12.4696 34.2082 12.591 34.0665 12.6517C33.9046 12.7327 33.5604 12.9554 33.6212 13.4412C33.6212 13.5019 33.6414 13.5627 33.6414 13.6032L33.7426 23.8258C33.7426 24.676 33.0746 25.3643 32.2244 25.3845ZM41.4957 74.0687C41.2527 74.0687 40.9896 74.0485 40.7467 73.9878C39.1272 73.6841 37.9329 72.4291 37.69 70.8096L33.7021 54.1295C33.6819 54.0687 33.6819 54.0283 33.6819 53.9675C33.6212 53.4817 33.2568 53.0768 32.771 52.9959C32.7305 52.9959 32.6698 52.9756 32.6293 52.9554L16.4754 48.0971C14.8762 47.753 13.7021 46.4776 13.4997 44.838C13.2973 43.1983 14.107 41.6801 15.5847 40.9513L26.273 34.2914C26.9815 33.8461 27.9127 34.0687 28.358 34.7772C28.8034 35.4857 28.5807 36.4169 27.8722 36.8623L17.1232 43.5627C17.0625 43.6032 17.022 43.6234 16.9612 43.6436C16.4957 43.8663 16.4957 44.2712 16.5159 44.4331C16.5361 44.5951 16.6374 44.9999 17.1434 45.1011C17.1839 45.1011 17.2447 45.1214 17.2851 45.1416L33.439 49.9999C35.1596 50.3643 36.4552 51.7408 36.6981 53.4817L40.6859 70.1619C40.7062 70.2226 40.7062 70.2631 40.7062 70.3238C40.7669 70.8299 41.1718 70.9513 41.3337 70.9918C41.4957 71.0323 41.9208 71.0525 42.1637 70.6072C42.1839 70.5667 42.2244 70.5262 42.2447 70.4857L49.5726 59.8987C50.0584 59.2104 50.9896 59.0283 51.6779 59.5141C52.3661 59.9999 52.5483 60.9311 52.0625 61.6193L44.775 72.1659C44.0665 73.3602 42.8519 74.0687 41.4957 74.0687Z" fill="currentColor"/>
<path d="M18.6212 42.3685C17.9936 42.3685 17.4066 41.9636 17.1839 41.3361L12.1029 26.579C11.4349 25.081 11.7588 23.4009 12.9531 22.2673C14.1475 21.1337 15.8479 20.8908 17.3054 21.6397L21.6171 23.3806C22.3863 23.7045 22.771 24.575 22.4471 25.3644C22.1232 26.1337 21.2527 26.5183 20.4633 26.1944L16.0705 24.413C16.0098 24.3928 15.9693 24.3725 15.9086 24.3321C15.4633 24.0891 15.1191 24.3321 14.9977 24.4535C14.8762 24.575 14.6131 24.8989 14.8357 25.3442C14.856 25.4049 14.8762 25.4454 14.8965 25.5061L19.9977 40.3442C20.2608 41.1337 19.856 42.0041 19.0463 42.2673C18.9653 42.328 18.7831 42.3685 18.6212 42.3685ZM40.2406 80.5871C38.8033 80.5871 37.528 79.7976 36.86 78.5021L27.8114 63.9474C27.7912 63.907 27.7507 63.8462 27.7305 63.8057C27.5078 63.3604 27.0422 63.0972 26.5564 63.158C26.4957 63.158 26.4552 63.1782 26.3944 63.1782L9.53209 63.664C7.89241 63.8462 6.39443 63.0163 5.68593 61.5183C4.97743 60.0203 5.26083 58.3402 6.43492 57.1863L12.1232 50.324C12.6495 49.6762 13.6212 49.5952 14.2689 50.1215C14.9167 50.6478 14.9977 51.6195 14.4714 52.2673L8.72237 59.1904C8.68188 59.2308 8.6414 59.2713 8.60091 59.3321C8.23654 59.6762 8.358 60.081 8.43897 60.2227C8.51994 60.3847 8.74261 60.7288 9.24869 60.6681C9.30941 60.6681 9.3499 60.6478 9.41063 60.6478L26.273 60.162C28.0139 59.9596 29.6738 60.8705 30.4633 62.4292L39.5118 76.9839C39.5321 77.0244 39.5726 77.0851 39.5928 77.1256C39.8155 77.5912 40.2203 77.5912 40.4025 77.5709C40.5645 77.5507 40.9693 77.4495 41.0706 76.9434C41.2325 76.1134 42.022 75.5669 42.8317 75.7288C43.6616 75.8908 44.2082 76.6802 44.0463 77.4899C43.7426 79.1499 42.4673 80.3644 40.7872 80.5669C40.5847 80.5669 40.4025 80.5871 40.2406 80.5871ZM56.5969 75.1823C56.5159 75.1823 56.4349 75.1823 56.354 75.162C55.524 75.0203 54.9774 74.2511 55.0989 73.4211C55.7669 69.4333 58.8843 67.4495 61.3337 66.66L57.3661 50.6276C56.2527 47.1053 58.1961 43.2997 61.7183 42.1458C63.439 41.579 65.2811 41.7207 66.8803 42.5507C68.4997 43.3604 69.694 44.7572 70.2406 46.4778L77.8317 69.7167C78.0948 70.5061 77.6495 71.3766 76.86 71.6397C76.0706 71.9029 75.2001 71.4576 74.937 70.6681L67.3459 47.4292C67.0422 46.4778 66.3742 45.7086 65.4835 45.2632C64.5928 44.8179 63.5807 44.7369 62.6293 45.0406C60.6657 45.6883 59.5928 47.7936 60.2406 49.7572C60.2608 49.7976 60.2608 49.8179 60.2608 49.8584L64.6131 67.4292C64.7143 67.8543 64.6333 68.2997 64.3904 68.664C64.1475 69.0284 63.7629 69.2511 63.3175 69.3118C63.1353 69.3321 58.7224 69.9393 58.0544 73.9272C57.9531 74.6559 57.3256 75.1823 56.5969 75.1823ZM84.7548 100C83.9248 100 83.2365 99.3118 83.2365 98.4819V88.9879C83.2365 87.6721 83.4592 86.3968 83.9248 85.1823L88.3378 73.1782C88.7021 72.1661 88.8438 71.0729 88.7426 70.0001L87.8114 60.5466C87.6495 58.9677 86.9815 57.4899 85.8884 56.3361L78.0948 48.0972C77.528 47.49 77.5483 46.5183 78.1556 45.9515C78.7629 45.3847 79.7345 45.4049 80.3013 46.0122L88.0948 54.2511C89.6333 55.8908 90.605 58.0163 90.8276 60.243L91.7588 69.6964C91.9005 71.2146 91.7183 72.7734 91.1718 74.2106L86.7588 86.2146C86.4349 87.1053 86.273 88.0365 86.273 88.9879V98.4819C86.273 99.3118 85.5847 100 84.7548 100ZM59.694 100C58.8641 100 58.1758 99.3118 58.1758 98.4819V91.498C58.1758 90.0203 57.609 88.6033 56.5969 87.5102L52.1029 82.6924C50.5847 81.0729 49.5118 79.0487 49.026 76.8827L45.8884 63.0972C45.7062 62.2875 46.2123 61.4576 47.022 61.2754C47.8317 61.0932 48.6616 61.5993 48.8438 62.409L51.9815 76.1944C52.3661 77.8543 53.1758 79.3725 54.3297 80.6074L58.8236 85.4252C60.362 87.0649 61.2123 89.2308 61.2123 91.4778V98.4616C61.2123 99.3118 60.5442 100 59.694 100Z" fill="currentColor"/>
</g>
<defs>
<clipPath id="clip0">
<rect width="91" height="100" fill="white" transform="translate(5)"/>
</clipPath>
</defs>
</svg>
