<svg width="100" height="100" viewBox="0 0 100 100" fill="none" xmlns="http://www.w3.org/2000/svg">
<g clip-path="url(#clip0)">
<path d="M99.1977 33.0596C97.5581 16.1169 86.0808 3 71.3243 3C63.1262 3 54.9282 7.3723 50.0093 13.9308C44.5439 7.3723 37.4389 3 28.6943 3C13.9378 3 2.46054 16.1169 0.820923 33.0596C0.820923 33.6061 0.820923 34.6992 0.820923 35.7923C0.820923 37.9784 0.820923 40.7111 1.914 44.5369C3.00707 48.9092 9.01899 61.4795 17.2171 70.2241C30.8805 84.9807 48.3697 95.9114 48.3697 95.9114C49.4628 96.4579 50.5559 96.4579 51.1024 95.9114C51.1024 95.9114 68.5916 84.4341 82.255 69.6776C90.4531 60.933 97.0116 48.9092 98.1046 44.5369C99.1977 40.7111 99.1977 37.9784 99.1977 35.7923C99.1977 34.6992 99.1977 33.6061 99.1977 33.0596ZM92.6392 43.4438C92.0927 45.6299 85.5343 58.7468 77.8827 66.3984C66.952 77.8757 53.8351 87.7133 49.4628 90.9926C45.0905 88.2599 31.427 78.4222 21.0428 67.4914C13.3913 59.8399 7.37938 46.723 6.83284 43.9903C6.2863 40.1646 6.2863 37.4319 6.2863 35.7923C6.2863 34.6992 6.2863 33.6061 6.2863 33.6061C7.92591 18.8496 17.2171 8.46538 28.6943 8.46538C36.3459 8.46538 42.9043 12.8377 47.2766 20.4892C47.8232 21.0357 48.9162 21.5823 50.0093 21.5823C51.1024 21.5823 51.6489 21.0357 52.1955 19.9427C56.0212 12.8377 63.6728 8.46538 71.3243 8.46538C82.8016 8.46538 92.0927 18.8496 93.7323 33.6061C93.7323 33.6061 93.7323 34.6992 93.7323 35.7923C93.7323 37.4319 93.7323 40.1646 92.6392 43.4438Z" fill="currentColor"/>
</g>
<defs>
<clipPath id="clip0">
<rect width="100" height="93.4579" fill="white" transform="translate(0 3)"/>
</clipPath>
</defs>
</svg>
