<svg width="100" height="100" viewBox="0 0 100 100" fill="none" xmlns="http://www.w3.org/2000/svg">
<path d="M98.0713 44.7579L55.1218 1.8084C54.2176 0.4521 52.8613 0 51.0529 0H50.6008H49.6966C48.3403 0 46.984 0.4521 45.6277 1.8084L2.67822 44.7579C0.417724 47.0184 0.417724 50.6352 2.67822 52.8957L6.74712 56.9646C7.65132 57.8688 9.00762 58.773 10.816 58.773C12.1723 58.773 13.5286 58.3209 14.8849 57.4167V90.42C14.8849 95.3931 18.9538 99.0099 23.9269 99.462H39.7504C40.2025 99.462 41.1067 99.0099 41.5588 99.0099C41.1067 98.1057 41.5588 97.6536 41.5588 96.7494V74.1444C41.5588 73.2402 42.463 72.336 43.8193 72.336H57.3823C58.7386 72.336 59.6428 73.2402 59.6428 74.5965V97.2015C59.6428 97.6536 60.0949 98.5578 60.0949 99.0099C60.547 99.462 60.9991 99.462 61.9033 99.462H77.7268C82.6999 99.462 86.7688 95.3931 86.7688 90.42V57.4167C87.673 58.3209 89.0293 58.773 90.3856 58.773C91.7419 58.773 93.0982 58.3209 94.4545 56.9646L98.5234 52.8957C100.332 50.6352 100.332 47.0184 98.0713 44.7579ZM81.7957 90.42C81.7957 92.6805 79.9873 94.941 77.2747 94.941H63.7117V74.5965C63.7117 70.9797 60.547 67.815 56.9302 67.815H43.3672C40.2025 67.815 37.0378 70.5276 37.0378 74.1444V94.4889H23.4748C20.7622 94.4889 18.9538 92.6805 18.9538 89.9679V52.4436L50.6008 20.7966L82.2478 52.4436V90.42H81.7957ZM94.9066 49.731L90.8377 53.7999L90.3856 54.252L89.4814 53.7999L53.7655 18.084L50.6008 14.9193L47.4361 18.084L11.7202 53.7999L10.816 54.252L9.91182 53.7999L5.84292 49.731C5.39082 49.2789 5.39082 48.3747 5.84292 47.9226L48.7924 4.9731L49.6966 4.521H50.6008H51.0529L51.9571 4.9731L94.9066 47.9226C95.3587 48.3747 95.3587 49.2789 94.9066 49.731Z" fill="currentColor"/>
</svg>
