<svg width="100" height="100" viewBox="0 0 100 100" fill="none" xmlns="http://www.w3.org/2000/svg">
<path d="M99.6816 46.4257C99.6816 20.8442 77.4162 0 49.9397 0C22.937 0 0.671661 20.8442 0.671661 46.4257C0.671661 72.4809 22.937 93.3251 50.4135 93.3251C55.1508 93.3251 59.8881 92.8514 64.6254 91.4302H65.0992L65.5729 91.9039C75.0475 97.115 84.5222 99.0099 90.6807 99.4836C91.6281 99.4836 92.5756 99.0099 93.0493 98.0624C93.5231 97.115 93.0493 96.1675 92.5756 95.2201C89.2595 92.3777 85.9434 87.6403 83.5747 81.9556V81.4818L84.0484 81.0081C93.9968 72.0072 99.6816 59.6902 99.6816 46.4257ZM79.3111 83.3768C80.7323 87.1666 83.101 90.4827 84.9959 93.3251C79.7848 92.3777 74.1001 90.4827 67.9415 87.1666C66.9941 86.2192 66.0466 86.2192 64.6254 86.2192C64.1517 86.2192 63.678 86.2192 63.2042 86.2192C58.9406 87.1666 54.6771 88.1141 50.4135 88.1141C25.7794 88.1141 5.40898 69.1648 5.40898 45.952C5.40898 23.6866 25.3057 4.73732 50.4135 4.73732C75.0475 4.73732 95.418 23.6866 95.418 46.4257C95.418 58.269 90.2069 69.6385 80.7323 77.692C79.3111 78.6394 78.8374 80.5344 78.8374 81.9556C78.8374 81.9556 78.8374 82.903 79.3111 83.3768ZM50.4135 26.529C48.9923 26.529 48.0448 27.4764 48.0448 28.8976V32.6875C48.0448 34.1087 48.9923 35.0561 50.4135 35.0561C51.8347 35.0561 52.7821 34.1087 52.7821 32.6875V28.8976C52.7821 27.4764 51.3609 26.529 50.4135 26.529ZM50.4135 40.7409C49.466 40.7409 48.9923 41.2147 48.5186 41.6884V42.1621V43.1096V63.9538C48.5186 65.375 49.466 66.3224 50.8872 66.3224C52.3084 66.3224 53.2559 65.375 53.2559 63.9538V43.1096C52.7821 41.6884 51.3609 40.7409 50.4135 40.7409Z" fill="currentColor"/>
</svg>
