<svg width="100" height="100" viewBox="0 0 100 100" fill="none" xmlns="http://www.w3.org/2000/svg">
<g clip-path="url(#clip0)">
<path d="M56.8876 76.8254C50.5383 76.0317 44.5066 73.6508 39.4272 69.6825C40.1674 68.3818 40.4992 66.8886 40.3796 65.3968L43.2368 63.6508L41.6495 59.6825L38.6336 61.5873C37.691 60.3603 36.3902 59.4567 34.9114 59.0017C33.4326 58.5467 31.8489 58.5627 30.3796 59.0476C27.1383 53.1356 25.7034 46.4023 26.2526 39.6825C31.8208 38.0216 37.7197 37.8032 43.3955 39.0476L45.6177 35.3968C39.4716 33.838 33.0337 33.838 26.8876 35.3968C27.6812 31.746 28.951 28.4127 30.5383 25.3968C31.1733 25.7142 31.9669 25.7142 32.6018 25.7142C35.7764 25.7142 38.6336 23.6508 39.586 20.9523C42.7585 20.5784 45.9692 20.6854 49.1098 21.2698C50.3796 23.6508 51.6495 26.3492 52.2844 29.0476C53.5542 28.2539 54.6653 27.4603 55.9352 26.9841C55.4958 25.6272 54.9655 24.3014 54.3479 23.0158C56.2526 23.6508 57.9987 24.6031 59.586 25.5555C62.1614 24.7922 64.8364 24.4177 67.5225 24.4444H67.9987C64.1249 20.905 59.5536 18.2151 54.5783 16.5476C49.6031 14.88 44.3341 14.2718 39.1098 14.7619C38.3509 13.2493 37.1003 12.0397 35.5633 11.3316C34.0263 10.6235 32.2942 10.459 30.6514 10.8651C29.0086 11.2712 27.5527 12.2237 26.5226 13.5664C25.4925 14.909 24.9496 16.562 24.9828 18.2539L25.1415 18.8889C16.9341 23.2641 10.6108 30.4907 7.36375 39.2063C5.70231 39.3357 4.13202 40.0176 2.90328 41.1434C1.67454 42.2691 0.858087 43.7738 0.584122 45.4176C0.310156 47.0614 0.594448 48.7496 1.39167 50.213C2.18889 51.6764 3.45312 52.8308 4.9828 53.492C5.21438 60.8751 7.60535 68.0283 11.8599 74.0667C16.1144 80.105 22.0459 84.7637 28.9204 87.4662C35.795 90.1687 43.311 90.7966 50.5387 89.2721C57.7664 87.7476 64.3885 84.1377 69.586 78.8889L67.6812 79.0476C63.8717 79.0476 60.2209 78.2539 56.8876 76.8254ZM28.1574 24.1269L27.3637 24.6031L28.3161 24.1269H28.1574ZM26.0939 25.3968C24.5066 28.7301 23.2368 32.5396 22.6018 36.5079C19.4272 37.7777 16.2526 39.365 13.3955 41.2698L13.2368 41.1111C15.6154 34.5713 20.077 28.9943 25.9352 25.2381L26.0939 25.3968ZM15.459 46.6666V45.0793C17.5225 43.492 19.7447 42.2222 22.1257 41.2698V42.5396C22.1257 49.365 23.8717 55.873 27.0463 61.4285C26.2526 62.3809 25.6177 63.8095 25.459 65.2381H24.8241C20.6542 65.2297 16.5366 64.3087 12.7606 62.5396C11.8082 59.6825 11.1733 56.6666 11.1733 53.492C12.4662 52.8841 13.5574 51.9178 14.3171 50.7078C15.0768 49.4979 15.4732 48.0953 15.459 46.6666V46.6666ZM42.7606 83.9682C37.151 83.9744 31.6399 82.4941 26.7884 79.678C21.9369 76.8619 17.9183 72.8106 15.1415 67.9365C18.3161 68.8889 21.4907 69.5238 24.8241 69.5238H26.0939C26.5436 70.448 27.1794 71.2693 27.9615 71.9361C28.7436 72.603 29.655 73.1011 30.6386 73.3992C31.6223 73.6973 32.6569 73.7889 33.6776 73.6683C34.6983 73.5477 35.683 73.2175 36.5701 72.6984C42.2844 77.3016 49.1098 80.3174 56.5701 81.1111C52.2649 83.1962 47.5441 84.2814 42.7606 84.2857V83.9682Z" fill="currentColor"/>
<path d="M98.951 75.5556L86.7288 65.2381C90.1602 60.4493 91.6531 54.5398 90.9079 48.6959C90.1626 42.852 87.2344 37.5063 82.711 33.7319C78.1876 29.9575 72.404 28.0339 66.521 28.3473C60.6381 28.6606 55.0915 31.1876 50.9946 35.4211C46.8977 39.6545 44.5538 45.281 44.4335 51.171C44.3132 57.0611 46.4254 62.7786 50.346 67.1758C54.2666 71.573 59.7054 74.3245 65.5706 74.8778C71.4358 75.4311 77.2932 73.7453 81.9669 70.1588L92.2844 82.2223C93.2368 83.3334 95.1415 83.4921 96.2526 82.2223L98.951 79.5238C100.062 78.4127 100.062 76.508 98.951 75.5556ZM67.6812 66.0318C63.8924 66.0318 60.2588 64.5267 57.5797 61.8476C54.9006 59.1685 53.3955 55.5349 53.3955 51.7461C53.3955 47.9572 54.9006 44.3236 57.5797 41.6445C60.2588 38.9654 63.8924 37.4603 67.6812 37.4603C71.47 37.4603 75.1036 38.9654 77.7827 41.6445C80.4618 44.3236 81.9669 47.9572 81.9669 51.7461C81.9669 55.5349 80.4618 59.1685 77.7827 61.8476C75.1036 64.5267 71.47 66.0318 67.6812 66.0318Z" fill="currentColor"/>
</g>
<defs>
<clipPath id="clip0">
<rect width="100" height="80.1587" fill="white" transform="translate(0 10)"/>
</clipPath>
</defs>
</svg>
