<svg width="100" height="100" viewBox="0 0 100 100" fill="none" xmlns="http://www.w3.org/2000/svg">
<path d="M89.2496 19.1111C88.8051 18.6667 88.3607 18.2222 87.4718 18.2222C86.5829 18.2222 86.1385 18.2222 85.2496 18.6667L75.4718 24.4444C74.1385 25.3333 73.2496 27.1111 73.694 28C74.1385 28.4444 74.5829 28.8889 75.4718 28.8889C76.3607 28.8889 76.8051 28.8889 77.694 28.4444L87.4718 22.6667C89.2496 21.7778 89.694 20.4444 89.2496 19.1111ZM94.5829 52.8889L83.4718 50.2222H82.5829C81.2496 50.2222 80.3607 50.6667 79.9162 51.5556C79.4718 52.8889 80.8051 54.2222 82.5829 54.6667L93.694 57.3333H94.5829C95.0273 57.3333 95.4718 57.3333 95.9162 56.8889C96.3607 56.4444 97.2496 56 97.2496 55.5556C97.2496 54.6667 96.3607 53.3333 94.5829 52.8889ZM57.694 82.2222H40.8051C38.5829 82.2222 36.8051 83.1111 36.3607 84L35.9162 84.8889V93.3333C36.3607 94.6667 37.694 95.5556 39.0273 95.5556H39.4718C40.8051 99.1111 44.3607 100 48.8051 100C53.2496 100 56.8051 99.1111 58.1385 95.5556H58.5829C59.9162 95.5556 61.2496 94.6667 61.694 93.3333V85.3333L61.2496 84.4444C61.694 83.1111 59.9162 82.2222 57.694 82.2222ZM58.1385 91.1111C56.3607 91.1111 55.0273 92.4445 54.5829 93.7778C54.5829 94.2222 54.1385 95.5556 49.2496 95.5556C44.8051 95.5556 44.3607 94.6667 43.9162 93.7778C43.4718 92 41.694 91.1111 40.3607 91.1111V86.6667H40.8051H57.694H58.1385V91.1111ZM71.0273 73.7778C70.1385 72.4444 69.2496 72 68.3607 72L67.4718 72.4444C66.5829 72.8889 66.5829 74.6667 67.4718 76.4445L73.2496 86.2222C74.1385 87.5556 75.0273 88 75.9162 88L76.8051 87.5556C77.694 87.1111 77.694 85.3333 76.8051 83.5556L71.0273 73.7778ZM26.1385 4.44444H25.2496C24.3607 5.33333 23.9162 6.66667 25.2496 8.44444L31.0273 17.7778C31.9162 19.1111 32.8051 19.5556 33.694 19.5556L34.5829 19.1111C35.4718 18.6667 35.4718 16.8889 34.5829 15.1111L28.8051 6.22222C27.9162 4.88889 27.0273 4.44444 26.1385 4.44444ZM49.2496 31.5556C49.2496 30.2222 48.3607 29.3333 47.0273 29.3333C38.5829 29.3333 31.9162 36 31.9162 44.4444C31.9162 45.7778 32.8051 46.6667 34.1385 46.6667C35.4718 46.6667 36.3607 45.7778 36.3607 44.4444C36.3607 38.6667 41.2496 33.7778 47.0273 33.7778C47.9162 34.2222 49.2496 32.8889 49.2496 31.5556ZM16.8051 39.5556C17.2496 39.5556 17.694 39.5556 18.1384 39.1111C18.5829 38.6667 19.4718 38.2222 19.4718 37.7778C19.9162 36.4444 18.5829 35.5556 16.8051 35.1111L5.694 32.4444H4.80511C3.47178 32.4444 2.58289 32.8889 2.13845 33.7778C1.694 35.1111 3.02734 36.4444 4.80511 36.4444L15.9162 39.1111L16.8051 39.5556ZM40.8051 78.2222H57.2496C59.4718 78.2222 61.2496 76.8889 61.694 74.6667C62.5829 70.2222 64.8051 65.7778 68.3607 62.2222C72.8051 57.7778 75.9162 51.5556 75.9162 44.8889C75.9162 31.1111 63.9162 20 49.2496 20C34.5829 20 22.5829 31.1111 23.0273 44.8889C23.0273 51.5556 25.694 57.3333 30.5829 61.7778C34.1385 65.3333 36.3607 69.3333 37.2496 74.2222C36.8051 76.4445 38.5829 78.2222 40.8051 78.2222ZM27.0273 45.3333C27.0273 40 28.8051 35.1111 32.8051 31.5556C36.8051 27.1111 42.5829 24.8889 49.2496 24.8889C61.2496 24.8889 71.4718 33.7778 71.4718 45.3333C71.4718 50.6667 69.2496 55.5556 65.2496 59.1111C61.2496 63.1111 58.5829 68 57.694 73.7778H40.8051C39.9162 68.4444 37.2496 63.1111 32.8051 59.1111C29.2496 55.1111 27.0273 50.2222 27.0273 45.3333ZM19.9162 60.4444C19.0273 60.4444 18.5829 60.4444 17.694 60.8889L7.91623 66.6667C6.58289 68 6.13845 69.7778 6.58289 70.6667C7.02734 71.1111 7.47178 71.5556 8.36067 71.5556C9.24956 71.5556 9.694 71.5556 10.5829 71.1111L19.9162 64.8889C21.2496 64 22.1385 62.2222 21.694 61.3333C21.2496 60.8889 20.8051 60.4444 19.9162 60.4444ZM58.1385 17.3333C59.4718 17.3333 60.8051 16.4444 60.8051 14.6667L63.4718 3.55556C63.9162 1.77778 63.0273 0 62.1385 0H61.694C60.8051 0 59.4718 1.33333 59.0273 2.66667L56.3607 13.7778C56.3607 14.6667 56.3607 15.5556 56.3607 16C57.2496 16.8889 57.694 17.3333 58.1385 17.3333Z" fill="currentColor"/>
</svg>
