<svg width="100" height="100" viewBox="0 0 100 100" fill="none" xmlns="http://www.w3.org/2000/svg">
<g clip-path="url(#clip0)">
<path d="M5.23558 89.4505L27.1114 93.8257H27.6583C31.4866 93.8257 33.6742 90.5443 33.6742 87.2629V85.6222C41.3307 86.1691 48.9873 93.8257 63.2066 93.8257H82.348C86.7231 93.8257 90.0045 90.5443 90.0045 86.1691C90.0045 84.5285 89.4576 83.4347 88.9107 81.794C91.0983 80.1533 92.739 77.4188 92.739 74.6843C92.739 73.0436 92.1921 71.4029 91.0983 69.7623C93.8328 68.1216 95.4735 65.3871 96.0204 62.1057C96.0204 59.9181 95.4735 58.2774 94.3797 56.6367C97.1142 54.9961 99.3018 51.7147 99.3018 47.8864C99.3018 42.4174 94.9266 38.0423 90.0045 38.0423H69.2225C70.3163 35.8547 71.4101 33.1202 72.5038 30.9326C74.6914 27.1043 75.7852 23.2761 75.7852 19.9947C75.7852 11.2443 69.2225 6.32227 64.3004 6.32227C61.5659 6.32227 58.2845 7.41606 57.7376 10.1505C57.1907 12.3381 57.1907 14.5257 56.6438 17.8071C55.5501 22.1823 49.5342 31.4795 37.5025 37.4954C36.4087 38.0423 34.768 38.5892 33.6742 39.1361C32.5804 36.4016 30.3928 34.214 27.6583 34.214L5.78248 36.4016C2.5011 36.4016 0.860413 39.1361 0.860413 41.3236V84.5285C0.860413 86.716 2.5011 89.4505 5.23558 89.4505ZM33.6742 45.1519C35.8618 44.0581 38.0494 43.5112 40.237 42.4174C53.3625 35.8547 60.4721 26.0105 61.5659 18.9009C62.1128 15.6195 62.1128 12.885 62.1128 12.3381C62.1128 12.3381 62.6597 12.3381 63.7535 12.3381C64.8473 12.3381 69.7694 14.5257 69.7694 20.5416C69.7694 22.7292 69.2225 25.4636 67.5818 28.745C65.9411 31.4795 64.3004 35.3078 63.2066 38.0423C62.6597 38.5892 62.6597 39.136 62.6597 40.2298C62.6597 42.9643 65.3942 44.0581 66.488 44.0581C71.41 44.0581 90.0045 44.0581 90.0045 44.0581C92.1921 44.0581 93.8328 45.6988 93.8328 48.4333C93.8328 51.1678 91.6452 52.8085 90.0045 52.8085L86.1763 53.3554C84.5356 53.3554 83.4418 54.996 83.4418 56.0898C83.4418 57.7305 84.5356 58.8243 86.1763 58.8243C88.9107 58.8243 91.0983 61.0119 91.0983 62.6526C91.0983 64.2933 89.4576 66.4809 86.1763 66.4809H83.9887H83.4418H82.8949C82.348 67.0278 81.8011 67.0278 81.2542 68.1216V69.2154V70.3091L81.8011 71.4029L82.348 71.9498H82.8949H83.4418C85.6294 71.9498 87.27 73.5905 87.27 75.2312C87.27 76.8719 85.6294 78.5126 83.4418 78.5126H82.8949H81.2542C79.6135 78.5126 78.5197 80.1533 79.0666 81.2471C79.0666 82.8878 80.1604 83.9816 81.8011 83.9816C82.8949 83.9816 83.9887 85.0754 83.9887 86.1691C83.9887 87.2629 82.8949 88.3567 81.8011 88.3567C81.8011 88.3567 66.488 88.3567 62.6597 88.3567C50.628 88.3567 43.5183 81.2471 33.1273 80.1533V45.1519H33.6742ZM6.32938 41.8705L27.6583 39.6829C27.6583 39.6829 28.2052 39.6829 28.2052 40.7767V42.4174V43.5112V87.2629C28.2052 88.3567 27.6583 88.3567 27.6583 88.3567L6.32938 83.9816V41.8705ZM20.0018 72.4967C18.3611 72.4967 17.2673 73.5905 17.2673 75.2312C17.2673 76.325 18.3611 77.9657 20.0018 77.9657C21.6425 77.9657 22.7363 76.325 22.7363 75.2312C22.7363 73.5905 21.6425 72.4967 20.0018 72.4967Z" fill="currentColor"/>
</g>
<defs>
<clipPath id="clip0">
<rect width="100" height="87.8261" fill="white" transform="translate(0 6)"/>
</clipPath>
</defs>
</svg>
