<svg width="100" height="100" viewBox="0 0 100 100" fill="none" xmlns="http://www.w3.org/2000/svg">
<path d="M89.3137 6.99526C84.4709 2.15239 78.5518 0 72.6327 0C66.7137 0 60.7946 2.15239 55.9517 6.99526L32.8135 30.1334C32.2754 30.6715 31.7373 31.2096 31.1992 31.7477L30.123 32.8239L6.98486 55.9621C-2.1628 65.1098 -2.1628 80.1765 6.98486 89.3242L10.2134 92.5527C15.0563 97.3956 20.9754 99.548 26.8945 99.548C32.8135 99.548 38.7326 96.8575 43.0374 92.5527L66.1756 69.4145C66.7137 68.8765 67.2518 68.3384 67.7899 67.2622L68.866 66.186L92.5423 43.0478C97.3852 38.2049 99.5376 32.2858 99.5376 26.3668C99.5376 20.4477 97.3852 14.5286 92.5423 9.68575L89.3137 6.99526ZM32.8135 63.4955L36.0421 66.7241C38.1945 68.8765 40.3469 69.9526 42.4993 71.5669L34.9659 79.1003C31.1992 82.867 24.7421 82.867 20.9754 79.1003C17.2087 75.3336 17.2087 68.8765 20.9754 65.1098L28.5087 57.5764C29.5849 59.1907 31.1992 61.3431 32.8135 63.4955ZM64.0232 64.0336L62.947 64.5717C62.4089 65.1098 61.8708 65.6479 61.8708 66.186L39.2707 88.7861C36.0421 92.0146 31.1992 94.167 26.3564 94.167C21.5135 94.167 16.6706 92.0146 13.442 88.7861L10.7515 85.5575C3.75627 78.5622 3.75627 66.7241 10.7515 59.7288L26.3564 44.124C26.3564 46.2764 26.3564 48.4288 26.8945 50.5811L17.2087 60.2669C11.2896 66.186 11.2896 75.8717 17.2087 82.3289C23.1278 88.248 32.8135 88.248 39.2707 82.3289L57.0279 64.5717C62.947 58.6526 62.947 48.9669 57.0279 42.5097C53.7993 40.3573 50.0326 38.743 46.266 38.743V38.2049L52.7231 32.2858H53.2612C55.4136 33.362 57.566 34.4382 59.7184 36.5906L62.947 39.8192C66.1756 43.0478 68.3279 47.8907 68.3279 52.7335C67.7898 57.0383 66.1756 60.805 64.0232 64.0336ZM46.8041 52.7335C44.1136 50.043 43.5755 46.8145 44.1136 43.5859H44.6517H45.7279C48.4183 43.5859 50.5707 44.6621 52.7231 46.2764C54.8755 48.4288 55.9517 51.6573 55.4136 54.8859C52.185 55.9621 48.9564 54.8859 46.8041 52.7335ZM66.1756 36.0525L62.947 32.8239C60.7946 30.6715 58.6422 29.5953 56.4898 27.9811L64.0232 20.4477C67.7898 16.681 74.247 16.681 78.0137 20.4477C81.7804 24.2144 81.7804 30.6715 78.0137 34.4382L70.4803 41.9716C69.9422 40.3573 68.3279 37.6668 66.1756 36.0525ZM88.2375 39.2811L72.6327 54.8859C72.6327 54.3478 72.6327 53.2716 72.6327 52.7335C72.6327 51.1192 72.6327 50.043 72.0946 48.4288L81.7804 38.743C87.6994 32.8239 87.6994 23.1382 81.7804 16.681C75.8613 10.7619 66.1756 10.7619 59.7184 16.681L43.0374 34.4382C37.1183 40.3573 37.1183 50.043 43.0374 56.5002C45.7279 59.1907 49.4945 60.805 52.7231 60.805L46.8041 66.7241C44.1136 65.6479 41.9612 64.5717 39.8088 62.4193L36.5802 59.1907C34.4278 57.0383 32.8135 54.3478 32.2754 51.6573C32.2754 51.1192 32.2754 50.5811 31.7373 50.043C30.6611 44.6621 32.2754 39.2811 35.504 35.5144L36.0421 34.9763C36.5802 34.4382 37.1183 33.9001 37.1183 33.362L59.7184 10.7619C62.947 7.53336 67.7899 5.38097 72.6327 5.38097C77.4756 5.38097 82.3185 7.53336 85.5471 10.7619L88.7756 13.9905C92.0042 17.2191 94.1566 22.062 94.1566 26.9049C94.1566 31.7477 92.0042 36.0525 88.2375 39.2811Z" fill="currentColor"/>
</svg>
