<svg width="100" height="100" viewBox="0 0 100 100" fill="none" xmlns="http://www.w3.org/2000/svg">
<path d="M50.5192 20.0913C41.3868 20.0913 33.6242 27.8539 33.6242 37.4429C33.6242 47.032 41.3868 54.7945 50.5192 54.7945C59.6516 54.7945 67.4142 47.032 67.4142 37.4429C67.4142 27.8539 59.6516 20.0913 50.5192 20.0913ZM50.5192 50.6849C43.6699 50.6849 38.1904 44.7489 38.1904 37.8995C38.1904 30.5936 43.6699 25.1142 50.5192 25.1142C57.3685 25.1142 62.848 31.0502 62.848 37.8995C62.848 44.7489 57.3685 50.6849 50.5192 50.6849ZM86.5922 37.4429C86.5922 16.895 70.1539 0 50.0626 0C29.9712 0 13.9895 16.895 13.9895 37.4429C13.9895 62.1005 50.5192 100 50.5192 100C50.5192 100 86.5922 61.6438 86.5922 37.4429ZM18.5557 37.4429C18.5557 19.1781 32.711 4.56621 50.5192 4.56621C67.8708 4.56621 82.4827 19.1781 82.4827 37.4429C82.4827 53.8813 61.9347 80.8219 50.5192 93.1507C39.1037 80.8219 18.5557 54.3379 18.5557 37.4429Z" fill="currentColor"/>
</svg>
