<svg width="100" height="100" viewBox="0 0 100 100" fill="none" xmlns="http://www.w3.org/2000/svg">
<g clip-path="url(#clip0)">
<path d="M88.42 30.9521V12.7277C88.42 9.08279 87.3786 7 83.7337 7C82.1716 7 80.0888 7.5207 76.9646 8.56209L37.9123 25.7451H10.836C5.10834 25.7451 0.422058 30.4314 0.422058 36.1591V51.78C0.422058 52.3007 0.422058 53.3421 0.422058 53.8628V54.3835L0.942756 55.4249L1.46345 55.9456L1.98415 56.987L2.50485 57.5077L3.02555 58.5491L3.54624 59.0698L4.58764 59.5905L5.10834 60.1112L6.14973 60.6319L6.67043 61.1526C7.19113 61.1526 7.71183 61.6733 8.75322 61.6733C9.27392 73.1286 15.0016 83.5426 23.8535 91.353C25.9362 92.9151 28.019 93.9565 30.6225 93.9565C33.226 93.9565 35.3088 92.9151 37.3916 91.353C40.5158 88.7495 41.0365 84.0633 38.433 80.9391C37.9123 80.4184 35.8295 78.3356 35.3088 77.8149C31.6639 73.1286 29.5811 67.4009 28.019 62.194H36.8709L77.4853 79.377C80.0888 80.4184 82.1716 80.9391 84.2544 80.9391C87.8993 80.9391 88.9407 78.8563 88.9407 75.2114V56.4663C94.6683 55.4249 99.3546 50.2179 99.3546 43.9695C98.8339 37.2005 94.6683 31.9935 88.42 30.9521ZM31.1432 80.4184C31.6639 80.9391 32.1846 81.9805 33.226 83.0219L33.7467 84.0633C34.7881 85.1047 34.2674 86.6667 33.226 87.7081C32.1846 88.2288 31.1432 88.7495 30.1018 88.7495C29.0604 88.7495 27.4983 88.2288 26.9776 87.7081C19.1672 80.9391 14.4809 71.5665 13.4395 61.6733H22.2914V62.7147C24.3742 69.4837 26.9776 75.2114 31.1432 80.4184ZM31.6639 56.4663H10.836H9.79462C9.27392 56.4663 8.75322 55.9456 8.23252 55.9456L6.67043 54.9042C6.14973 54.3835 6.14973 53.8628 6.14973 53.3421C5.62904 52.3007 5.62903 51.78 5.62903 51.2593V35.6384C5.62903 33.0349 7.71183 30.4314 10.836 30.4314H31.6639V56.4663ZM83.213 74.6907C82.1716 75.2114 81.1302 74.6907 78.5267 74.17L38.9537 56.987L37.9123 56.4663H36.8709V30.4314H38.9537L39.9951 29.9107L79.0474 12.7277C81.1302 12.7277 82.6923 12.207 83.213 12.207V12.7277V74.6907ZM88.42 50.7386V36.1591C91.5442 37.2005 93.6269 40.3247 93.6269 43.4488C93.6269 47.0937 91.5442 49.6972 88.42 50.7386ZM13.4395 40.8453H18.6465C20.2086 40.8453 21.25 39.804 21.25 38.2419C21.25 36.6798 20.2086 35.6384 18.6465 35.6384H13.4395C11.8774 35.6384 10.836 37.2005 10.836 38.2419C10.836 39.2833 11.8774 40.8453 13.4395 40.8453Z" fill="currentColor"/>
</g>
<defs>
<clipPath id="clip0">
<rect width="100" height="86.9565" fill="white" transform="translate(0 7)"/>
</clipPath>
</defs>
</svg>
