<svg width="100" height="100" viewBox="0 0 100 100" fill="none" xmlns="http://www.w3.org/2000/svg">
<path d="M48.1457 91.6318H52.3298C53.585 91.6318 54.4218 90.795 54.4218 89.5398C54.4218 88.2845 53.585 87.4477 52.3298 87.4477H48.1457C46.8905 87.4477 46.0536 88.2845 46.0536 89.5398C46.0536 90.795 46.8905 91.6318 48.1457 91.6318ZM29.3172 0C24.7147 0 20.949 3.76569 20.949 8.3682V91.6318C20.949 96.2343 24.7147 100 29.3172 100H71.1582C75.7608 100 79.5264 96.2343 79.5264 91.6318V8.3682C79.5264 3.76569 75.7608 0 71.1582 0H29.3172ZM74.9239 91.6318C74.9239 93.7239 73.2503 95.8159 70.7398 95.8159H29.3172C27.2252 95.8159 25.1331 94.1423 25.1331 91.6318V83.2636H75.3423V91.6318H74.9239ZM74.9239 79.0795H25.1331V20.9205H75.3423V79.0795H74.9239ZM74.9239 8.3682V16.7364H25.1331V8.3682C25.1331 6.27615 26.8068 4.1841 29.3172 4.1841H71.1582C73.2503 4.1841 74.9239 5.85774 74.9239 8.3682ZM52.3298 8.3682H43.9616C42.7064 8.3682 41.8695 9.20502 41.8695 10.4603C41.8695 11.7155 42.7064 12.5523 43.9616 12.5523H52.3298C53.1666 12.5523 54.4218 11.7155 54.4218 10.4603C54.4218 9.20502 53.1666 8.3682 52.3298 8.3682ZM60.698 8.3682C59.4428 8.3682 58.6059 9.20502 58.6059 10.4603C58.6059 11.7155 59.4428 12.5523 60.698 12.5523C61.5348 12.5523 62.79 11.7155 62.79 10.4603C62.79 9.20502 61.5348 8.3682 60.698 8.3682Z" fill="currentColor"/>
</svg>
