<svg width="100" height="100" viewBox="0 0 100 100" fill="none" xmlns="http://www.w3.org/2000/svg">
<path d="M37.0087 33.395C34.8503 33.0076 33.3007 32.0667 32.4152 30.5171C31.8618 29.5209 31.5851 28.1927 31.5851 26.4771H34.1862C34.2415 27.8053 34.4629 28.8015 34.795 29.4103C35.4038 30.5171 36.566 31.1259 38.2263 31.2919V23.2671C36.0679 22.8797 34.5183 22.2156 33.4667 21.2194C32.4706 20.2786 31.9171 18.9504 31.9171 17.2901C31.9171 15.7958 32.4706 14.4675 33.5774 13.25C34.6843 12.0324 36.2339 11.4237 38.1709 11.4237V9.48663H39.5545V11.4237C41.4915 11.5897 43.0411 12.1431 44.0927 13.1393C45.1442 14.1355 45.6976 15.5191 45.753 17.1794H43.1518C43.0965 16.4599 42.8751 15.7958 42.5431 15.2423C41.9343 14.2462 40.9381 13.7481 39.5545 13.6927V20.8874C41.8236 21.5515 43.3732 22.1049 44.2034 22.7137C45.5316 23.6545 46.1957 24.9828 46.1957 26.8091C46.1957 29.4103 45.3656 31.2919 43.6499 32.3988C42.9305 32.8416 41.9343 33.1736 40.7721 33.395C44.148 33.5057 47.524 34.0591 50.7892 35.0553C53.8885 31.9561 55.7701 27.75 55.7701 23.0458C55.8808 13.582 48.2434 6 38.8904 6C29.5374 6 21.9 13.582 21.9 22.9904C21.9 27.8053 23.9477 32.1774 27.2129 35.2767C30.3675 34.2251 33.6881 33.6164 37.0087 33.395Z" fill="currentColor"/>
<path d="M35.5698 19.4485C36.2339 20.0019 37.1194 20.3893 38.2263 20.6107V13.6375C36.8981 13.6928 36.0126 14.0802 35.4591 14.7997C34.9057 15.5191 34.629 16.2939 34.629 17.1241C34.629 18.1203 34.961 18.8951 35.5698 19.4485ZM43.5946 27.5286C43.5946 26.3111 43.1519 25.3703 42.2664 24.7061C41.7683 24.3187 40.8828 23.9867 39.6099 23.6546V31.4027C41.2702 31.3473 42.4324 30.6832 43.0965 29.5764C43.4286 28.9676 43.5946 28.3035 43.5946 27.5286ZM97.1117 67.5419C99.1594 65.3835 99.3808 61.3988 99.0487 56.0305C96.6136 55.8645 93.0163 56.2519 91.7434 56.0305C88.6441 49.8874 84.2167 45.0725 77.9075 42.1947C78.1289 38.2099 78.6823 34.5019 81.0067 32.5649C75.3617 32.1775 70.6022 35.9962 67.5583 39.4828C64.8465 36.6603 60.8064 34.3912 56.0469 32.7863L53.003 38.0992C44.2034 35.0554 34.5183 35.1107 25.774 38.2099L21.9 33.0076C21.9 33.0076 21.9 32.9523 21.8447 32.9523C15.8122 34.9447 10.2779 38.0992 5.96109 42.5821C3.13858 42.3607 3.47064 36.6603 7.1233 37.6011C1.2569 33.5611 -2.00836 44.6298 3.69201 46.0134C-1.06752 52.8206 -1.56561 67.5419 4.85423 72.9102C5.79506 80.9904 7.23399 88.6278 11.1634 93.7194H24.0584C23.7263 91.1182 23.3943 88.2957 23.671 85.2518C31.5297 87.0228 40.8274 87.5762 50.1805 86.8014C51.6194 89.1812 53.003 91.6163 54.774 93.7747H67.5583C67.1156 90.3988 66.5621 86.8568 67.503 83.3702C70.5469 82.706 86.3751 78.666 97.1117 67.5419ZM79.4571 50.3855C81.2281 50.3855 82.6117 51.8244 82.6117 53.5401C82.6117 55.2557 81.1728 56.6946 79.4571 56.6946C77.6861 56.6946 76.3026 55.2557 76.3026 53.5401C76.3026 51.8244 77.6861 50.3855 79.4571 50.3855Z" fill="currentColor"/>
</svg>
