<svg width="100" height="100" viewBox="0 0 100 100" fill="none" xmlns="http://www.w3.org/2000/svg">
<g clip-path="url(#clip0)">
<path d="M16.3451 94.4599C16.0829 94.4599 15.8425 94.3944 15.6022 94.2851C15.0559 94.001 14.7062 93.4329 14.7062 92.821V85.61C6.53368 85.1511 0 78.3333 0 70.0297V33.4061C0 24.8184 6.99257 17.8258 15.5803 17.8258H65.2494C73.8371 17.8258 80.8297 24.8184 80.8297 33.4061V70.0515C80.8297 78.6393 73.8371 85.6318 65.2494 85.6318H28.8443L17.3285 94.154C17.0444 94.3507 16.6947 94.4599 16.3451 94.4599ZM15.5803 21.1036C8.80626 21.1036 3.27776 26.6102 3.27776 33.4061V70.0515C3.27776 76.8256 8.78441 82.3541 15.5803 82.3541H16.367C17.2629 82.3541 18.0059 83.097 18.0059 83.9929V89.587L27.3366 82.6818C27.6206 82.4633 27.9703 82.3541 28.3199 82.3541H65.2712C72.0453 82.3541 77.5738 76.8474 77.5738 70.0515V33.4061C77.5738 26.6321 72.0671 21.1036 65.2712 21.1036H15.5803V21.1036Z" fill="currentColor"/>
<path d="M34.045 36.7713H14.6407C13.7448 36.7713 13.0018 36.0284 13.0018 35.1325C13.0018 34.2365 13.7448 33.4936 14.6407 33.4936H34.045C34.941 33.4936 35.6839 34.2365 35.6839 35.1325C35.6839 36.0284 34.941 36.7713 34.045 36.7713ZM66.3638 47.7628H14.6407C13.7448 47.7628 13.0018 47.0198 13.0018 46.1239C13.0018 45.228 13.7448 44.485 14.6407 44.485H66.3638C67.2597 44.485 68.0027 45.228 68.0027 46.1239C68.0027 47.0198 67.2597 47.7628 66.3638 47.7628ZM66.3638 58.7542H14.6407C13.7448 58.7542 13.0018 58.0112 13.0018 57.1153C13.0018 56.2194 13.7448 55.4764 14.6407 55.4764H66.3638C67.2597 55.4764 68.0027 56.2194 68.0027 57.1153C68.0027 58.0112 67.2597 58.7542 66.3638 58.7542ZM66.3638 69.7456H14.6407C13.7448 69.7456 13.0018 69.0027 13.0018 68.1068C13.0018 67.2108 13.7448 66.4679 14.6407 66.4679H66.3638C67.2597 66.4679 68.0027 67.2108 68.0027 68.1068C68.0027 69.0245 67.2597 69.7456 66.3638 69.7456ZM92.2144 98.0874C91.5807 98.0874 90.9907 97.7159 90.7285 97.1478L84.916 84.6923C84.8067 84.4737 84.763 84.2334 84.763 83.993V16.4492C84.763 15.5533 85.5059 14.8103 86.4019 14.8103C87.2978 14.8103 88.0408 15.5533 88.0408 16.4492V83.6434L92.2144 92.5807L96.3881 83.6434V18.0881H94.64V54.8427C94.64 55.7387 93.897 56.4816 93.0011 56.4816C92.1052 56.4816 91.3622 55.7387 91.3622 54.8427V16.4492C91.3622 15.5533 92.1052 14.8103 93.0011 14.8103H98.027C98.9229 14.8103 99.6659 15.5533 99.6659 16.4492V83.993C99.6659 84.2334 99.6222 84.4737 99.5129 84.6923L93.7004 97.1478C93.4381 97.7159 92.8481 98.0874 92.2144 98.0874ZM98.0489 13.5648C97.1529 13.5648 96.41 12.8218 96.41 11.9259V8.45145C96.41 6.15702 94.5307 4.27776 92.2363 4.27776C89.9419 4.27776 88.0626 6.15702 88.0626 8.45145V11.9259C88.0626 12.8218 87.3196 13.5648 86.4237 13.5648C85.5278 13.5648 84.7848 12.8218 84.7848 11.9259V8.45145C84.763 4.34332 88.1063 1 92.2144 1C96.3226 1 99.6659 4.34332 99.6659 8.45145V11.9259C99.6877 12.8437 98.9448 13.5648 98.0489 13.5648Z" fill="currentColor"/>
</g>
<defs>
<clipPath id="clip0">
<rect width="100" height="97.0874" fill="white" transform="translate(0 1)"/>
</clipPath>
</defs>
</svg>
