<svg width="100" height="100" viewBox="0 0 100 100" fill="none" xmlns="http://www.w3.org/2000/svg">
<path d="M24.3482 56.3367C24.3482 56.3367 13.1601 70.6733 15.3185 85.604C17.4769 100.535 21.4769 97.2872 21.4769 97.2872L29.3581 86.7129C29.3581 86.7327 21.7542 77.6238 24.3482 56.3367V56.3367ZM75.1997 56.3367C77.7938 77.6238 70.1898 86.7327 70.1898 86.7327L78.071 97.307C78.071 97.307 82.071 100.554 84.2294 85.6238C86.3878 70.6733 75.1997 56.3367 75.1997 56.3367V56.3367ZM49.774 66.2773C47.4571 66.2773 46.7839 68.3961 46.7443 68.8317L44.17 93.0099C44.1004 93.7827 44.1942 94.5614 44.4456 95.2955C44.6969 96.0295 45.1 96.7024 45.6287 97.2703C46.1574 97.8382 46.7997 98.2884 47.5139 98.5916C48.2282 98.8947 48.9982 99.044 49.774 99.0297C53.2195 99.0297 55.7146 96.1783 55.3779 93.0099L52.8037 68.8317C52.7641 68.3961 52.0908 66.2773 49.774 66.2773V66.2773Z" fill="currentColor"/>
<path d="M61.7938 13.5644C59.3978 9.18812 54.0513 0 49.774 0C45.4968 0 40.1503 9.18812 37.7542 13.5644C35.3582 17.9604 27.873 35.5842 27.873 60.1584C27.873 83.1683 38.0513 89.901 39.3582 90.6535L43.8532 67.9604C44.0117 67.1485 45.1602 63.3267 49.774 63.3267C54.3879 63.3267 55.5364 67.1485 55.6948 67.9604L60.1899 90.6535C61.4968 89.8812 71.675 83.1485 71.675 60.1584C71.675 35.5842 64.1899 17.9604 61.7938 13.5644V13.5644ZM49.774 46.5347C47.7206 46.5347 45.7512 45.7189 44.2992 44.2669C42.8472 42.8149 42.0315 40.8455 42.0315 38.7921C42.0315 36.7386 42.8472 34.7693 44.2992 33.3173C45.7512 31.8652 47.7206 31.0495 49.774 31.0495C51.8275 31.0495 53.7968 31.8652 55.2489 33.3173C56.7009 34.7693 57.5166 36.7386 57.5166 38.7921C57.5166 40.8455 56.7009 42.8149 55.2489 44.2669C53.7968 45.7189 51.8275 46.5347 49.774 46.5347V46.5347Z" fill="currentColor"/>
</svg>
