<svg width="110" height="100" viewBox="0 0 110 100" fill="none" xmlns="http://www.w3.org/2000/svg">
<g clip-path="url(#clip0)">
<path d="M109.2 59.2068C109.2 52.2413 106.215 45.7733 101.239 40.3004C100.244 39.3053 98.7517 39.3053 97.7566 40.3004C96.7615 41.2955 96.7615 42.7881 97.7566 43.7832C101.737 48.261 104.225 53.7339 104.225 59.2068C104.225 67.1674 99.7468 74.6305 91.7862 79.6058L90.7911 81.0985C90.7911 82.0935 90.7911 82.5911 90.7911 83.5861C90.7911 88.064 92.2837 91.5467 94.2738 94.0344C88.3034 93.0393 82.8305 91.0492 77.8551 86.0738L75.865 85.5763C73.8748 85.5763 72.3822 86.0738 70.3921 86.0738C64.4216 86.0738 58.4512 85.0788 53.4758 82.5911C51.9832 82.0935 50.9881 82.5911 49.993 84.0837C49.4955 85.5763 49.993 86.5714 51.4856 87.5664C56.9586 90.0541 63.4265 91.0492 69.8945 91.0492C71.3871 91.0492 73.3773 91.0492 74.8699 90.5517C82.8305 98.0147 92.2837 99.5073 101.239 99.5073C102.234 99.5073 103.23 99.0098 103.727 97.5172C104.225 96.5221 103.727 95.0295 102.732 94.532C102.732 94.532 95.7665 90.5517 95.7665 83.5861V83.0886C103.727 77.1182 109.2 68.66 109.2 59.2068ZM0.239319 36.8176C0.239319 48.261 6.7073 58.2117 16.1605 64.6797V65.6748C16.1605 74.6305 7.20484 79.6058 7.20484 79.6058C6.20976 80.1034 5.71223 81.0985 5.71223 82.5911C6.20977 83.5861 7.20484 84.5812 8.19991 84.5812C18.6482 84.5812 29.594 82.5911 39.0472 73.6354C41.0374 73.6354 43.0275 74.1329 44.5201 74.1329C68.8994 74.1329 88.8009 58.2117 89.2985 37.3152C89.2985 16.4186 68.8994 0.497432 44.5201 0.497432C20.6383 -0.000105422 0.239319 15.9211 0.239319 36.8176ZM45.0177 4.97527C67.4068 4.97527 84.8206 19.4038 84.8206 36.8176C84.8206 54.2314 67.4068 68.66 45.0177 68.66C43.0275 68.66 41.0374 68.66 38.5497 68.1625C37.5546 68.1625 37.0571 68.1625 36.5595 68.66C30.0916 75.128 23.126 77.6157 16.1605 78.1132C18.6482 75.128 21.1359 71.1477 21.1359 65.1773C21.1359 64.1822 21.1359 63.1871 21.1359 62.6896L20.1408 61.197C10.6876 55.7241 5.21469 46.7684 5.21469 36.8176C5.21469 19.4038 22.6285 4.97527 45.0177 4.97527Z" fill="currentColor"/>
</g>
<defs>
<clipPath id="clip0">
<rect width="109.901" height="100" fill="white"/>
</clipPath>
</defs>
</svg>
