<svg width="100" height="100" viewBox="0 0 100 100" fill="none" xmlns="http://www.w3.org/2000/svg">
<path d="M97.7773 36.2574L67.2092 30.46L52.4521 3.05407L51.9251 2.52704H51.3981L50.871 2H50.344H49.8169H49.2899H48.7629L48.2358 2.52704L47.7088 3.05407L32.9518 30.46L2.38361 36.2574C1.32954 36.2574 0.802504 36.7844 0.275467 37.8385C0.275467 38.8926 0.275467 39.9467 0.802504 40.4737L21.884 63.1363L18.1947 93.7044C18.1947 94.7585 18.7218 95.8126 19.2488 96.3396C19.7758 96.8666 20.8299 96.8666 21.884 96.3396L49.8169 83.1637L77.7499 96.3396C78.804 96.8666 79.8581 96.8666 80.3851 96.3396C80.9121 95.8126 81.4392 94.7585 81.4392 93.7044L77.7499 63.1363L98.8314 40.4737C99.3584 39.9467 99.8855 38.8926 99.3584 37.8385C99.3584 36.7844 98.8314 36.2574 97.7773 36.2574ZM73.5336 59.9741L73.0066 62.0822L76.1688 88.9611L51.3981 77.3663H48.7629L23.9921 88.9611L27.1544 62.0822L26.6273 59.9741L8.18102 40.4737L35.0599 35.2033L36.641 34.1493L49.8169 10.4326L63.5199 34.1493L65.101 35.2033L91.9799 40.4737L73.5336 59.9741Z" fill="currentColor"/>
</svg>
