<svg width="100" height="100" viewBox="0 0 100 100" fill="none" xmlns="http://www.w3.org/2000/svg">
<path d="M83.2196 51.4089C84.1716 48.5528 84.6476 45.2207 84.6476 42.3647C84.6476 27.6084 72.2713 15.2322 57.5151 15.2322C54.183 15.2322 51.3269 15.7082 48.4709 16.6602L49.8989 20.9443C52.279 19.9923 54.659 19.5163 57.5151 19.5163C69.8913 19.5163 79.8875 29.5125 79.8875 41.8887C79.8875 44.7447 79.4115 47.1248 78.4595 49.5048L83.2196 51.4089Z" fill="currentColor"/>
<path d="M58.4671 0C51.3269 0 44.6628 1.90404 38.9507 4.76009L41.3307 9.04417C46.5668 6.18812 52.279 4.76009 58.4671 4.76009C78.9355 4.76009 95.1198 21.4204 95.1198 41.4128C95.1198 47.6009 93.6917 53.313 90.8357 58.5491L95.1198 60.9292C97.9758 55.2171 99.8799 48.5529 99.8799 41.4128C99.8799 18.5644 81.3155 0 58.4671 0Z" fill="currentColor"/>
<path d="M72.7473 57.1214C70.8433 57.1214 69.4153 57.5974 67.9873 59.0254C61.3231 66.1655 61.3231 70.9256 57.515 70.4496C53.231 70.4496 47.0428 65.2135 40.8547 59.0254C34.6666 52.8373 29.4305 46.6492 29.4305 42.3651C28.9545 38.557 33.7146 38.557 40.8547 31.8929C42.2828 30.4649 42.7588 28.5608 42.7588 27.1328C41.8068 17.1366 28.4785 4.76037 20.8623 3.80835C14.1982 4.28436 7.53409 13.8045 3.25001 19.0406C1.34597 21.8967 0.869965 25.2288 0.869965 27.6088C0.869965 28.5608 0.869965 29.5128 1.34597 29.9889C4.20203 43.7931 15.1502 63.3095 25.6224 74.2577C36.5706 85.2059 57.5151 96.1541 70.8433 98.5342C71.3193 98.5342 71.3193 98.5342 71.7953 98.5342C73.6994 98.5342 76.5554 98.5342 78.9355 97.1062C83.6956 93.2981 95.1198 86.1579 96.0718 78.5418C95.1198 70.9256 82.7435 58.0734 72.7473 57.1214ZM76.5554 93.7741C76.5554 93.7741 73.2234 94.7261 72.2713 94.2501C59.8951 92.3461 39.4267 80.9218 29.4305 70.9256C19.4343 61.4055 8.96212 41.4131 6.58207 29.0368C6.58207 28.5608 6.58207 28.0848 6.58207 27.6088C5.63006 25.7048 6.10606 23.8007 7.53409 21.8967C10.8662 16.6606 19.4343 7.61642 21.3384 8.09243C22.2904 7.61642 27.5265 10.9485 31.3345 15.2326C35.6186 19.0406 38.4747 24.7528 38.4747 27.1328C38.4747 28.0848 38.4747 28.0848 37.9987 28.5608C32.7626 34.2729 25.1464 33.7969 24.6704 42.3651C24.6704 49.9812 31.3345 56.1694 37.5227 62.3575C43.7108 68.5456 49.8989 75.2097 57.515 75.2097C66.0832 74.7337 65.6072 67.5936 71.3193 62.3575C71.7953 61.8815 72.2713 61.8815 72.7473 61.8815C75.1274 61.8815 80.3635 64.7375 84.6476 69.0216C88.9317 72.8297 91.7877 78.0658 91.7877 79.0178C92.2637 80.9218 80.8395 90.918 76.5554 93.7741Z" fill="currentColor"/>
</svg>
