<svg width="100" height="100" viewBox="0 0 100 100" fill="none" xmlns="http://www.w3.org/2000/svg">
<g clip-path="url(#clip0)">
<path d="M99.8798 11.8812L90.3749 9.30693L87.9987 0L70.1769 18.0198L63.0482 32.2772L46.6125 48.5149C46.0422 49.1566 45.7386 49.992 45.7639 50.8501C45.7892 51.7083 46.1413 52.5244 46.7484 53.1314C47.3555 53.7385 48.1716 54.0907 49.0297 54.116C49.8879 54.1412 50.7233 53.8376 51.365 53.2673L62.8501 41.5842C64.9772 44.8233 65.9214 48.6971 65.5235 52.5517C65.1256 56.4063 63.4098 60.0055 60.6658 62.7417C57.9219 65.4779 54.3179 67.1836 50.4622 67.5707C46.6065 67.9578 42.7353 67.0026 39.5022 64.8664C36.2691 62.7303 33.8721 59.544 32.7159 55.8454C31.5596 52.1469 31.715 48.1626 33.1557 44.5653C34.5964 40.9681 37.2342 37.978 40.6238 36.1001C44.0134 34.2222 47.9472 33.5713 51.761 34.2574L58.2957 27.9208C55.5234 26.7327 52.3551 25.9406 48.9888 25.9406C43.3816 25.8646 37.9124 27.6797 33.4633 31.0931C29.0143 34.5065 25.8447 39.3191 24.4661 44.7546C23.0874 50.1902 23.58 55.9316 25.8644 61.0529C28.1488 66.1741 32.0917 70.3765 37.0572 72.9822C42.0227 75.5878 47.7212 76.4448 53.2334 75.4148C58.7457 74.3849 63.7502 71.5281 67.4398 67.3052C71.1294 63.0824 73.2889 57.7397 73.5699 52.1392C73.8509 46.5386 72.2371 41.0066 68.9888 36.4356L80.4739 30.4951C85.2888 38.0043 87.279 46.9801 86.0894 55.8208C84.8997 64.6615 80.6076 72.7919 73.9789 78.7613C67.3502 84.7307 58.8161 88.1506 49.8995 88.4109C40.983 88.6712 32.264 85.7549 25.2983 80.1824C18.3327 74.6099 13.5736 66.7437 11.8702 57.9874C10.1669 49.2312 11.6301 40.1546 15.9988 32.3772C20.3674 24.5998 27.3574 18.6277 35.7213 15.5264C44.0852 12.4251 53.2789 12.3964 61.662 15.4455L69.5828 7.52475C59.0438 2.45565 47.0193 1.39817 35.7573 4.54999C24.4953 7.70182 14.7665 14.8472 8.38968 24.6504C2.01284 34.4537 -0.575583 46.2437 1.10826 57.8166C2.79211 69.3895 8.63296 79.9531 17.539 87.5327C26.445 95.1123 37.8066 99.1891 49.4998 99.0009C61.1931 98.8128 72.4176 94.3726 81.0751 86.5104C89.7327 78.6482 95.2307 67.9022 96.5413 56.2811C97.852 44.66 94.8856 32.9593 88.1967 23.3663L99.8798 11.8812Z" fill="currentColor"/>
</g>
<defs>
<clipPath id="clip0">
<rect width="100" height="99.0099" fill="white"/>
</clipPath>
</defs>
</svg>
