<svg width="100" height="100" viewBox="0 0 100 100" fill="none" xmlns="http://www.w3.org/2000/svg">
<g clip-path="url(#clip0)">
<path d="M52.461 1H47.7702C21.5013 2.40726 0.86145 23.5162 0.86145 50.2542C0.86145 76.523 21.5013 98.101 47.7702 99.0392H52.461C78.2608 97.632 99.3697 76.523 99.3697 50.2542C98.9007 23.5162 78.2608 2.40726 52.461 1ZM32.7594 8.97448C29.0067 13.1963 25.7231 18.3562 23.3776 24.4544H13.9959C18.6868 17.8871 25.254 12.2581 32.7594 8.97448ZM10.7123 29.1452H21.5013C19.6249 34.7743 18.6868 41.3415 18.6868 47.9087H5.55232C6.02141 40.8724 7.89776 34.7743 10.7123 29.1452ZM5.55232 52.5996H18.6868C18.6868 59.1668 20.094 65.734 21.5013 71.3631H10.7123C7.89776 65.2649 6.02141 59.1668 5.55232 52.5996ZM13.9959 75.5849H23.3776C25.7231 81.683 29.0067 86.843 32.7594 90.5957C25.254 87.7811 18.6868 82.6212 13.9959 75.5849ZM47.7702 94.3483C39.7957 92.9411 33.2285 85.9048 28.5376 76.0539H47.7702V94.3483ZM47.7702 70.894H26.6612C24.7849 65.2649 23.8467 58.6977 23.3776 52.1305H47.7702V70.894ZM47.7702 47.9087H23.3776C23.3776 41.3415 24.7849 34.7743 26.6612 29.1452H47.7702V47.9087ZM47.7702 24.4544H28.5376C32.7594 14.1344 39.7957 7.09813 47.7702 5.69087V24.4544ZM52.461 5.69087C59.9664 7.09813 67.0027 14.1344 71.2245 24.4544H52.461V5.69087ZM52.461 29.1452H73.57C75.4463 34.7743 76.3845 41.3415 76.8536 47.9087H52.461V29.1452ZM52.461 52.5996H76.3845C76.3845 59.1668 74.9772 65.734 73.1009 71.3631H52.461V52.5996ZM52.461 94.3483V76.0539H71.2245C67.0027 85.9048 59.9664 92.9411 52.461 94.3483ZM67.0027 91.0647C70.7554 87.312 74.039 82.1521 76.3845 76.0539H85.7662C81.0754 82.6212 74.5081 87.7811 67.0027 91.0647ZM89.0498 70.894H78.2608C80.1372 65.2649 81.0754 58.6977 81.0754 52.1305H94.2098C93.7407 59.1668 91.8643 65.2649 89.0498 70.894ZM94.2098 47.9087H81.0754C81.0754 41.3415 79.6681 34.7743 78.2608 29.1452H89.0498C91.8643 34.7743 93.7407 40.8724 94.2098 47.9087ZM76.3845 24.4544C74.039 18.3562 70.7554 13.1963 67.0027 9.44357C74.5081 12.7272 81.0754 17.8871 85.7662 24.4544H76.3845Z" fill="currentColor"/>
</g>
<defs>
<clipPath id="clip0">
<rect width="100" height="98.0392" fill="white" transform="translate(0 1)"/>
</clipPath>
</defs>
</svg>
